<svg width="223" height="93" viewBox="0 0 223 93" fill="none" xmlns="http://www.w3.org/2000/svg">
<g filter="url(#filter0_d)">
<rect x="4" y="85" width="85" height="215" transform="rotate(-90 4 85)" fill="#613C77"/>
<rect x="4.5" y="84.5" width="84" height="214" transform="rotate(-90 4.5 84.5)" stroke="black" stroke-linejoin="round"/>
</g>
<path d="M28.4961 22.6289H22.9639L22.5879 23.5527C22.0293 24.8919 21.75 25.7656 21.75 26.1738C21.75 26.6107 21.8968 26.9437 22.1904 27.1729C22.4912 27.3949 22.8743 27.5059 23.3398 27.5059V28H19.0107V27.5059C19.6553 27.4056 20.1351 27.18 20.4502 26.8291C20.7653 26.471 21.1449 25.7227 21.5889 24.584C21.6247 24.4766 21.7965 24.0612 22.1045 23.3379L26.3369 13.2295H26.7559L31.6221 24.7988L32.2881 26.3242C32.4385 26.668 32.639 26.9401 32.8896 27.1406C33.1475 27.334 33.5306 27.4557 34.0391 27.5059V28H28.3135V27.5059C29.0153 27.5059 29.488 27.4557 29.7314 27.3555C29.9821 27.248 30.1074 27.0404 30.1074 26.7324C30.1074 26.5749 29.9427 26.1058 29.6133 25.3252L28.4961 22.6289ZM28.3135 22.1455L25.7354 15.9365L23.168 22.1455H28.3135ZM37.2832 13.2295V24.9814C37.2832 25.9196 37.2939 26.5104 37.3154 26.7539C37.3441 26.9974 37.4479 27.1836 37.627 27.3125C37.806 27.4414 38.1247 27.5059 38.583 27.5059H38.8408V28L34.1357 28V27.5059H34.4365C34.8662 27.5059 35.1706 27.4486 35.3496 27.334C35.5358 27.2122 35.6468 27.0439 35.6826 26.8291C35.7184 26.6143 35.7363 25.9984 35.7363 24.9814V16.2803C35.7363 15.3564 35.654 14.7764 35.4893 14.54C35.3245 14.2965 34.9235 14.1748 34.2861 14.1748V13.6807C34.723 13.6807 35.235 13.6305 35.8223 13.5303C36.4167 13.43 36.8249 13.3298 37.0469 13.2295H37.2832ZM40.667 14.3574C40.667 14.0495 40.7744 13.7845 40.9893 13.5625C41.2113 13.3405 41.4762 13.2295 41.7842 13.2295C42.0921 13.2295 42.3535 13.3405 42.5684 13.5625C42.7832 13.7845 42.8906 14.0495 42.8906 14.3574C42.8906 14.6725 42.7832 14.9411 42.5684 15.1631C42.3535 15.3851 42.0921 15.4961 41.7842 15.4961C41.4762 15.4961 41.2113 15.3851 40.9893 15.1631C40.7744 14.9411 40.667 14.6725 40.667 14.3574ZM42.7402 18.8477V24.9814C42.7402 25.9196 42.7546 26.5104 42.7832 26.7539C42.8118 26.9974 42.9157 27.1836 43.0947 27.3125C43.2738 27.4414 43.5924 27.5059 44.0508 27.5059H44.2764V28H39.5391V27.5059H39.9043C40.4128 27.5059 40.7422 27.4342 40.8926 27.291C41.0501 27.1406 41.1396 26.9652 41.1611 26.7646C41.1898 26.557 41.2041 25.9626 41.2041 24.9814V22.3174C41.2041 21.2861 41.154 20.6559 41.0537 20.4268C40.9606 20.1976 40.8317 20.0544 40.667 19.9971C40.5094 19.9398 40.2301 19.9111 39.8291 19.9111H39.5391V19.417C40.8138 19.2881 41.8021 19.0983 42.5039 18.8477H42.7402ZM53.1064 25.8516H53.5791C53.0921 27.5202 51.8747 28.3545 49.9268 28.3545C48.6735 28.3545 47.6172 27.9284 46.7578 27.0762C45.9056 26.224 45.4795 25.096 45.4795 23.6924C45.4795 22.2529 45.9414 21.0856 46.8652 20.1904C47.7891 19.2952 48.8812 18.8477 50.1416 18.8477C50.9007 18.8477 51.599 19.016 52.2363 19.3525C52.8737 19.682 53.1924 20.0866 53.1924 20.5664C53.1924 20.7454 53.1315 20.9137 53.0098 21.0713C52.8952 21.2288 52.7269 21.3076 52.5049 21.3076C52.0322 21.3076 51.7422 21.0319 51.6348 20.4805C51.5488 20.0651 51.4163 19.7751 51.2373 19.6104C51.0511 19.4456 50.6895 19.3633 50.1523 19.3633C49.1927 19.3633 48.4694 19.6963 47.9824 20.3623C47.5026 21.0283 47.2627 22.0309 47.2627 23.3701C47.2627 24.7523 47.5205 25.8337 48.0361 26.6143C48.5589 27.3949 49.3467 27.7852 50.3994 27.7852C51.8174 27.7852 52.7197 27.1406 53.1064 25.8516ZM62.8926 22.1777L56.7588 22.1777C56.7301 22.6003 56.7158 22.9154 56.7158 23.123C56.7158 24.6699 56.9557 25.8337 57.4355 26.6143C57.9225 27.3877 58.6458 27.7744 59.6055 27.7744C60.9089 27.7744 61.8327 27.1908 62.377 26.0234H62.8926C62.6634 26.7539 62.2087 27.3268 61.5283 27.7422C60.848 28.1504 60.1068 28.3545 59.3047 28.3545C58.5599 28.3545 57.8545 28.1683 57.1885 27.7959C56.5296 27.4163 55.9889 26.8828 55.5664 26.1953C55.1439 25.5078 54.9326 24.6735 54.9326 23.6924C54.9326 22.3031 55.3408 21.1501 56.1572 20.2334C56.9736 19.3096 57.9941 18.8477 59.2188 18.8477C60.3717 18.8477 61.2633 19.1986 61.8936 19.9004C62.5238 20.6022 62.8568 21.3613 62.8926 22.1777ZM61.0127 21.748C61.0342 21.5833 61.0449 21.4365 61.0449 21.3076C61.0449 20.6774 60.8587 20.1904 60.4863 19.8467C60.1211 19.4958 59.6699 19.3203 59.1328 19.3203C57.8294 19.3203 57.0524 20.1296 56.8018 21.748L61.0127 21.748ZM65.2559 19.0625V18.4932C66.6452 18.221 67.3398 17.444 67.3398 16.1621C67.3398 15.7109 67.2074 15.4854 66.9424 15.4854C66.8851 15.4854 66.8135 15.4961 66.7275 15.5176C66.5628 15.5677 66.4196 15.5928 66.2979 15.5928C65.9469 15.5928 65.6676 15.4818 65.46 15.2598C65.2523 15.0378 65.1484 14.7871 65.1484 14.5078C65.1484 14.2285 65.2523 13.9814 65.46 13.7666C65.6748 13.5446 65.9505 13.4336 66.2871 13.4336C66.7454 13.4336 67.1429 13.6484 67.4795 14.0781C67.8232 14.5078 67.9951 15.0843 67.9951 15.8076C67.9951 16.6383 67.7552 17.3473 67.2754 17.9346C66.8027 18.5146 66.1296 18.8906 65.2559 19.0625ZM69.3057 28.2793V25.3896H69.7246C70.2116 27.0583 71.0817 27.8926 72.335 27.8926C72.8792 27.8926 73.2839 27.7279 73.5488 27.3984C73.821 27.069 73.957 26.7074 73.957 26.3135C73.957 25.8551 73.8138 25.4792 73.5273 25.1855C73.2337 24.8919 72.6644 24.5374 71.8193 24.1221C70.9313 23.6852 70.2939 23.2555 69.9072 22.833C69.5205 22.4176 69.3271 21.9056 69.3271 21.2969C69.3271 20.7168 69.5348 20.1654 69.9502 19.6426C70.3656 19.1126 70.9492 18.8477 71.7012 18.8477C72.4674 18.8477 73.1012 19.1592 73.6025 19.7822C73.71 19.6748 73.8496 19.4134 74.0215 18.998H74.4189V21.7158H74.0215C73.8783 21.0641 73.599 20.5055 73.1836 20.04C72.7754 19.5674 72.292 19.3311 71.7334 19.3311C71.3037 19.3311 70.9564 19.4635 70.6914 19.7285C70.4264 19.9935 70.2939 20.3014 70.2939 20.6523C70.2939 21.0391 70.4408 21.3721 70.7344 21.6514C71.0208 21.9378 71.5687 22.2637 72.3779 22.6289C73.5954 23.1803 74.3402 23.7174 74.6123 24.2402C74.8844 24.7702 75.0205 25.2786 75.0205 25.7656C75.0205 26.5319 74.7663 27.1549 74.2578 27.6348C73.7565 28.1146 73.1227 28.3545 72.3564 28.3545C71.5472 28.3545 70.8275 28.0215 70.1973 27.3555C70.0039 27.5703 69.8464 27.8783 69.7246 28.2793H69.3057ZM90.7578 22.6289H85.2256L84.8496 23.5527C84.291 24.8919 84.0117 25.7656 84.0117 26.1738C84.0117 26.6107 84.1585 26.9437 84.4521 27.1729C84.7529 27.3949 85.1361 27.5059 85.6016 27.5059V28H81.2725V27.5059C81.917 27.4056 82.3968 27.18 82.7119 26.8291C83.027 26.471 83.4066 25.7227 83.8506 24.584C83.8864 24.4766 84.0583 24.0612 84.3662 23.3379L88.5986 13.2295H89.0176L93.8838 24.7988L94.5498 26.3242C94.7002 26.668 94.9007 26.9401 95.1514 27.1406C95.4092 27.334 95.7923 27.4557 96.3008 27.5059V28H90.5752V27.5059C91.277 27.5059 91.7497 27.4557 91.9932 27.3555C92.2438 27.248 92.3691 27.0404 92.3691 26.7324C92.3691 26.5749 92.2044 26.1058 91.875 25.3252L90.7578 22.6289ZM90.5752 22.1455L87.9971 15.9365L85.4297 22.1455H90.5752ZM104.433 20.1367V16.6992C104.433 15.7611 104.418 15.1702 104.39 14.9268C104.368 14.6833 104.268 14.4971 104.089 14.3682C103.91 14.2393 103.591 14.1748 103.133 14.1748H102.907V13.6807C103.774 13.6592 104.723 13.5088 105.754 13.2295H105.979V25.0566C105.979 26.0807 105.997 26.7038 106.033 26.9258C106.069 27.1478 106.18 27.3125 106.366 27.4199C106.56 27.5273 106.914 27.5811 107.43 27.5811V28.0752C106.391 28.0967 105.467 28.1898 104.658 28.3545C104.572 28.0179 104.529 27.488 104.529 26.7646C103.999 27.2946 103.451 27.6921 102.886 27.957C102.327 28.222 101.747 28.3545 101.146 28.3545C100.007 28.3545 99.0221 27.8962 98.1914 26.9795C97.3678 26.0628 96.9561 24.9528 96.9561 23.6494C96.9561 22.2171 97.3786 21.0605 98.2236 20.1797C99.0687 19.2917 100.075 18.8477 101.242 18.8477C101.837 18.8477 102.399 18.9551 102.929 19.1699C103.459 19.3848 103.96 19.707 104.433 20.1367ZM104.433 20.7598C103.96 20.3516 103.484 20.0472 103.004 19.8467C102.531 19.639 102.055 19.5352 101.575 19.5352C100.766 19.5352 100.089 19.8467 99.5449 20.4697C99.0078 21.0928 98.7393 22.1097 98.7393 23.5205C98.7393 24.9528 99.015 26.0091 99.5664 26.6895C100.125 27.3698 100.812 27.71 101.629 27.71C102.173 27.71 102.678 27.5811 103.144 27.3232C103.609 27.0654 104.039 26.6787 104.433 26.1631V20.7598ZM112.983 28.3545H112.36L109.234 21.2969C108.926 20.6165 108.683 20.1833 108.504 19.9971C108.325 19.8109 108.031 19.7106 107.623 19.6963V19.2021H111.598V19.6963C111.161 19.6963 110.86 19.7321 110.695 19.8037C110.538 19.8753 110.459 20.0114 110.459 20.2119C110.459 20.3695 110.602 20.7526 110.889 21.3613L113.263 26.7002L115.4 21.9414C115.737 21.1823 115.905 20.6882 115.905 20.459C115.905 19.9792 115.547 19.7249 114.831 19.6963V19.2021H117.796V19.6963C117.431 19.7178 117.123 19.8717 116.872 20.1582C116.629 20.4375 116.285 21.0713 115.841 22.0596L112.983 28.3545ZM126.1 22.1777L119.966 22.1777C119.937 22.6003 119.923 22.9154 119.923 23.123C119.923 24.6699 120.163 25.8337 120.643 26.6143C121.13 27.3877 121.853 27.7744 122.812 27.7744C124.116 27.7744 125.04 27.1908 125.584 26.0234H126.1C125.87 26.7539 125.416 27.3268 124.735 27.7422C124.055 28.1504 123.314 28.3545 122.512 28.3545C121.767 28.3545 121.062 28.1683 120.396 27.7959C119.737 27.4163 119.196 26.8828 118.773 26.1953C118.351 25.5078 118.14 24.6735 118.14 23.6924C118.14 22.3031 118.548 21.1501 119.364 20.2334C120.181 19.3096 121.201 18.8477 122.426 18.8477C123.579 18.8477 124.47 19.1986 125.101 19.9004C125.731 20.6022 126.064 21.3613 126.1 22.1777ZM124.22 21.748C124.241 21.5833 124.252 21.4365 124.252 21.3076C124.252 20.6774 124.066 20.1904 123.693 19.8467C123.328 19.4958 122.877 19.3203 122.34 19.3203C121.036 19.3203 120.259 20.1296 120.009 21.748L124.22 21.748ZM129.967 18.8477H130.257C130.422 19.2917 130.515 19.8968 130.536 20.6631C131.052 20.0544 131.592 19.5996 132.158 19.2988C132.724 18.998 133.315 18.8477 133.931 18.8477C134.632 18.8477 135.205 18.9945 135.649 19.2881C136.101 19.5817 136.391 19.9434 136.52 20.373C136.648 20.7956 136.713 21.415 136.713 22.2314V24.9814C136.713 25.9984 136.731 26.6178 136.767 26.8398C136.802 27.0618 136.913 27.2301 137.1 27.3447C137.293 27.4521 137.644 27.5059 138.152 27.5059V28H133.651V27.5059H133.855C134.371 27.5059 134.708 27.4307 134.865 27.2803C135.023 27.1299 135.112 26.9544 135.134 26.7539C135.155 26.5534 135.166 25.9626 135.166 24.9814V22.1455C135.166 21.4508 135.13 20.9567 135.059 20.6631C134.994 20.3623 134.812 20.0973 134.511 19.8682C134.217 19.639 133.841 19.5244 133.383 19.5244C132.86 19.5244 132.359 19.682 131.879 19.9971C131.406 20.305 130.959 20.7705 130.536 21.3936V24.9814C130.536 25.9984 130.554 26.6178 130.59 26.8398C130.633 27.0618 130.747 27.2301 130.934 27.3447C131.127 27.4521 131.481 27.5059 131.997 27.5059V28L127.55 28V27.5059C128.044 27.5059 128.388 27.4557 128.581 27.3555C128.774 27.2552 128.893 27.1048 128.936 26.9043C128.986 26.6966 129.011 26.0557 129.011 24.9814V22.3604C129.011 21.3363 128.989 20.7168 128.946 20.502C128.91 20.2799 128.796 20.1152 128.603 20.0078C128.416 19.8932 128.065 19.8359 127.55 19.8359V19.3418C128.338 19.2559 129.143 19.0911 129.967 18.8477ZM144.662 19.6963H142.009V25.0137C142.009 25.8301 142.045 26.3815 142.116 26.668C142.188 26.9473 142.338 27.1729 142.567 27.3447C142.804 27.5166 143.054 27.6025 143.319 27.6025C143.835 27.6025 144.283 27.3089 144.662 26.7217L145.006 26.9258C144.784 27.3984 144.454 27.7565 144.018 28C143.588 28.2363 143.151 28.3545 142.707 28.3545C142.191 28.3545 141.737 28.2041 141.343 27.9033C140.956 27.5954 140.713 27.2373 140.612 26.8291C140.519 26.4209 140.473 25.7048 140.473 24.6807V19.6963H139.194V19.2021C139.782 19.1878 140.308 18.9408 140.773 18.4609C141.239 17.9811 141.536 17.3079 141.665 16.4414H142.009V19.2021H144.662V19.6963ZM154.609 19.2021V24.9707C154.609 25.9303 154.624 26.5319 154.652 26.7754C154.681 27.0189 154.785 27.2015 154.964 27.3232C155.15 27.445 155.479 27.5059 155.952 27.5059V28C154.864 28.0143 154.069 28.1289 153.567 28.3438H153.438C153.209 27.9499 153.088 27.2695 153.073 26.3027C152.636 26.9831 152.135 27.4951 151.569 27.8389C151.011 28.1826 150.391 28.3545 149.711 28.3545C149.124 28.3545 148.604 28.222 148.153 27.957C147.702 27.6849 147.391 27.3555 147.219 26.9688C147.054 26.582 146.972 25.9984 146.972 25.2178V22.2207C146.972 21.2038 146.954 20.5843 146.918 20.3623C146.882 20.1331 146.768 19.9648 146.574 19.8574C146.388 19.75 146.041 19.6963 145.532 19.6963V19.2021H148.519V25.3037C148.519 25.9053 148.554 26.3421 148.626 26.6143C148.698 26.8864 148.88 27.1263 149.174 27.334C149.467 27.5345 149.808 27.6348 150.194 27.6348C150.746 27.6348 151.272 27.4557 151.773 27.0977C152.275 26.7324 152.615 26.3493 152.794 25.9482C152.98 25.54 153.073 24.96 153.073 24.208V22.2207C153.073 21.2611 153.062 20.6774 153.041 20.4697C153.02 20.262 152.926 20.083 152.762 19.9326C152.604 19.7751 152.271 19.6963 151.763 19.6963H151.537V19.2021H154.609ZM160.185 21.0928C160.428 20.4554 160.822 19.9219 161.366 19.4922C161.918 19.0625 162.455 18.8477 162.978 18.8477C163.45 18.8477 163.823 18.9945 164.095 19.2881C164.367 19.5817 164.503 19.8825 164.503 20.1904C164.503 20.3981 164.431 20.5771 164.288 20.7275C164.152 20.8779 163.984 20.9531 163.783 20.9531C163.425 20.9531 163.153 20.6882 162.967 20.1582C162.838 19.8001 162.645 19.6211 162.387 19.6211C162.079 19.6211 161.71 19.8324 161.28 20.2549C160.851 20.6702 160.575 21.1035 160.453 21.5547C160.331 22.0059 160.271 22.6253 160.271 23.4131V24.9814C160.271 25.9196 160.281 26.5104 160.303 26.7539C160.331 26.9974 160.435 27.1836 160.614 27.3125C160.793 27.4414 161.112 27.5059 161.57 27.5059H161.871V28L157.198 28V27.5059H157.424C157.854 27.5059 158.158 27.4486 158.337 27.334C158.523 27.2122 158.634 27.0439 158.67 26.8291C158.706 26.6143 158.724 25.9984 158.724 24.9814V22.5C158.724 21.5547 158.709 20.9639 158.681 20.7275C158.659 20.484 158.559 20.2979 158.38 20.1689C158.201 20.0329 157.882 19.9648 157.424 19.9648H157.198V19.4814C157.871 19.4027 158.752 19.1914 159.841 18.8477C160.049 19.4134 160.163 20.1618 160.185 21.0928ZM173.129 22.1777H166.995C166.966 22.6003 166.952 22.9154 166.952 23.123C166.952 24.6699 167.192 25.8337 167.672 26.6143C168.159 27.3877 168.882 27.7744 169.842 27.7744C171.145 27.7744 172.069 27.1908 172.613 26.0234H173.129C172.9 26.7539 172.445 27.3268 171.765 27.7422C171.084 28.1504 170.343 28.3545 169.541 28.3545C168.796 28.3545 168.091 28.1683 167.425 27.7959C166.766 27.4163 166.225 26.8828 165.803 26.1953C165.38 25.5078 165.169 24.6735 165.169 23.6924C165.169 22.3031 165.577 21.1501 166.394 20.2334C167.21 19.3096 168.23 18.8477 169.455 18.8477C170.608 18.8477 171.5 19.1986 172.13 19.9004C172.76 20.6022 173.093 21.3613 173.129 22.1777ZM171.249 21.748C171.271 21.5833 171.281 21.4365 171.281 21.3076C171.281 20.6774 171.095 20.1904 170.723 19.8467C170.357 19.4958 169.906 19.3203 169.369 19.3203C168.066 19.3203 167.289 20.1296 167.038 21.748H171.249ZM174.858 28.2793V25.3896H175.277C175.764 27.0583 176.634 27.8926 177.888 27.8926C178.432 27.8926 178.837 27.7279 179.102 27.3984C179.374 27.069 179.51 26.7074 179.51 26.3135C179.51 25.8551 179.367 25.4792 179.08 25.1855C178.786 24.8919 178.217 24.5374 177.372 24.1221C176.484 23.6852 175.847 23.2555 175.46 22.833C175.073 22.4176 174.88 21.9056 174.88 21.2969C174.88 20.7168 175.088 20.1654 175.503 19.6426C175.918 19.1126 176.502 18.8477 177.254 18.8477C178.02 18.8477 178.654 19.1592 179.155 19.7822C179.263 19.6748 179.402 19.4134 179.574 18.998H179.972V21.7158H179.574C179.431 21.0641 179.152 20.5055 178.736 20.04C178.328 19.5674 177.845 19.3311 177.286 19.3311C176.856 19.3311 176.509 19.4635 176.244 19.7285C175.979 19.9935 175.847 20.3014 175.847 20.6523C175.847 21.0391 175.993 21.3721 176.287 21.6514C176.574 21.9378 177.121 22.2637 177.931 22.6289C179.148 23.1803 179.893 23.7174 180.165 24.2402C180.437 24.7702 180.573 25.2786 180.573 25.7656C180.573 26.5319 180.319 27.1549 179.811 27.6348C179.309 28.1146 178.675 28.3545 177.909 28.3545C177.1 28.3545 176.38 28.0215 175.75 27.3555C175.557 27.5703 175.399 27.8783 175.277 28.2793H174.858ZM20.4717 39.3574C20.4717 39.0495 20.5791 38.7845 20.7939 38.5625C21.016 38.3405 21.2809 38.2295 21.5889 38.2295C21.8968 38.2295 22.1582 38.3405 22.373 38.5625C22.5879 38.7845 22.6953 39.0495 22.6953 39.3574C22.6953 39.6725 22.5879 39.9411 22.373 40.1631C22.1582 40.3851 21.8968 40.4961 21.5889 40.4961C21.2809 40.4961 21.016 40.3851 20.7939 40.1631C20.5791 39.9411 20.4717 39.6725 20.4717 39.3574ZM22.5449 43.8477V49.9814C22.5449 50.9196 22.5592 51.5104 22.5879 51.7539C22.6165 51.9974 22.7204 52.1836 22.8994 52.3125C23.0785 52.4414 23.3971 52.5059 23.8555 52.5059H24.0811V53H19.3437V52.5059H19.709C20.2174 52.5059 20.5469 52.4342 20.6973 52.291C20.8548 52.1406 20.9443 51.9652 20.9658 51.7646C20.9945 51.557 21.0088 50.9626 21.0088 49.9814V47.3174C21.0088 46.2861 20.9587 45.6559 20.8584 45.4268C20.7653 45.1976 20.6364 45.0544 20.4717 44.9971C20.3141 44.9398 20.0348 44.9111 19.6338 44.9111H19.3437V44.417C20.6185 44.2881 21.6068 44.0983 22.3086 43.8477H22.5449ZM27.5293 43.8477H27.8193C27.984 44.2917 28.0771 44.8968 28.0986 45.6631C28.6143 45.0544 29.1549 44.5996 29.7207 44.2988C30.2865 43.998 30.8773 43.8477 31.4932 43.8477C32.195 43.8477 32.7679 43.9945 33.2119 44.2881C33.6631 44.5817 33.9531 44.9434 34.082 45.373C34.2109 45.7956 34.2754 46.415 34.2754 47.2314V49.9814C34.2754 50.9984 34.2933 51.6178 34.3291 51.8398C34.3649 52.0618 34.4759 52.2301 34.6621 52.3447C34.8555 52.4521 35.2064 52.5059 35.7148 52.5059V53H31.2139V52.5059H31.418C31.9336 52.5059 32.2702 52.4307 32.4277 52.2803C32.5853 52.1299 32.6748 51.9544 32.6963 51.7539C32.7178 51.5534 32.7285 50.9626 32.7285 49.9814V47.1455C32.7285 46.4508 32.6927 45.9567 32.6211 45.6631C32.5566 45.3623 32.374 45.0973 32.0732 44.8682C31.7796 44.639 31.4036 44.5244 30.9453 44.5244C30.4225 44.5244 29.9212 44.682 29.4414 44.9971C28.9687 45.305 28.5212 45.7705 28.0986 46.3936L28.0986 49.9814C28.0986 50.9984 28.1165 51.6178 28.1523 51.8398C28.1953 52.0618 28.3099 52.2301 28.4961 52.3447C28.6895 52.4521 29.0439 52.5059 29.5596 52.5059V53H25.1123V52.5059C25.6064 52.5059 25.9502 52.4557 26.1436 52.3555C26.3369 52.2552 26.4551 52.1048 26.498 51.9043C26.5482 51.6966 26.5732 51.0557 26.5732 49.9814V47.3604C26.5732 46.3363 26.5518 45.7168 26.5088 45.502C26.473 45.2799 26.3584 45.1152 26.165 45.0078C25.9788 44.8932 25.6279 44.8359 25.1123 44.8359V44.3418C25.9001 44.2559 26.7057 44.0911 27.5293 43.8477ZM56.8662 53.3545H56.3828L51.9463 41.3447L48.0684 53.3545H47.5527L44.04 42.0107C43.7249 40.9795 43.4958 40.2956 43.3525 39.959C43.2165 39.6152 43.0339 39.3646 42.8047 39.207C42.5827 39.0423 42.2103 38.9492 41.6875 38.9277V38.4336H47.1553V38.9277C46.4964 38.9707 46.0739 39.0674 45.8877 39.2178C45.7015 39.361 45.6084 39.5651 45.6084 39.8301C45.6084 40.0664 45.7588 40.6715 46.0596 41.6455L48.6592 50.1318L52.4619 38.4336H53.0635L57.3389 50.1318L59.5625 42.3975C59.8561 41.3519 60.0029 40.668 60.0029 40.3457C60.0029 39.4004 59.498 38.9277 58.4883 38.9277V38.4336H62.4629V38.9277C61.8757 38.9707 61.4388 39.1891 61.1523 39.583C60.8659 39.9697 60.5042 40.9043 60.0674 42.3867L56.8662 53.3545ZM61.5391 48.585C61.5391 47.2386 61.9902 46.1143 62.8926 45.2119C63.7949 44.3024 64.9049 43.8477 66.2227 43.8477C67.5475 43.8477 68.6611 44.3024 69.5635 45.2119C70.4658 46.1214 70.917 47.2458 70.917 48.585C70.917 50.0674 70.4587 51.2347 69.542 52.0869C68.6253 52.932 67.5189 53.3545 66.2227 53.3545C64.9264 53.3545 63.82 52.9248 62.9033 52.0654C61.9938 51.1989 61.5391 50.0387 61.5391 48.585ZM63.3223 48.6387C63.3223 50.1999 63.5765 51.2956 64.085 51.9258C64.5934 52.5488 65.306 52.8604 66.2227 52.8604C67.1608 52.8604 67.877 52.5488 68.3711 51.9258C68.8724 51.2956 69.123 50.1999 69.123 48.6387C69.123 47.0918 68.876 45.9889 68.3818 45.3301C67.8877 44.6712 67.168 44.3418 66.2227 44.3418C65.2845 44.3418 64.5648 44.6712 64.0635 45.3301C63.5693 45.9818 63.3223 47.0846 63.3223 48.6387ZM74.752 43.8477H75.042C75.2067 44.2917 75.2998 44.8968 75.3213 45.6631C75.8369 45.0544 76.3776 44.5996 76.9434 44.2988C77.5091 43.998 78.0999 43.8477 78.7158 43.8477C79.4176 43.8477 79.9906 43.9945 80.4346 44.2881C80.8857 44.5817 81.1758 44.9434 81.3047 45.373C81.4336 45.7956 81.498 46.415 81.498 47.2314V49.9814C81.498 50.9984 81.516 51.6178 81.5518 51.8398C81.5876 52.0618 81.6986 52.2301 81.8848 52.3447C82.0781 52.4521 82.429 52.5059 82.9375 52.5059V53H78.4365V52.5059H78.6406C79.1562 52.5059 79.4928 52.4307 79.6504 52.2803C79.8079 52.1299 79.8975 51.9544 79.9189 51.7539C79.9404 51.5534 79.9512 50.9626 79.9512 49.9814V47.1455C79.9512 46.4508 79.9154 45.9567 79.8438 45.6631C79.7793 45.3623 79.5967 45.0973 79.2959 44.8682C79.0023 44.639 78.6263 44.5244 78.168 44.5244C77.6452 44.5244 77.1439 44.682 76.6641 44.9971C76.1914 45.305 75.7438 45.7705 75.3213 46.3936V49.9814C75.3213 50.9984 75.3392 51.6178 75.375 51.8398C75.418 52.0618 75.5326 52.2301 75.7188 52.3447C75.9121 52.4521 76.2666 52.5059 76.7822 52.5059V53H72.335V52.5059C72.8291 52.5059 73.1729 52.4557 73.3662 52.3555C73.5596 52.2552 73.6777 52.1048 73.7207 51.9043C73.7708 51.6966 73.7959 51.0557 73.7959 49.9814V47.3604C73.7959 46.3363 73.7744 45.7168 73.7314 45.502C73.6956 45.2799 73.5811 45.1152 73.3877 45.0078C73.2015 44.8932 72.8506 44.8359 72.335 44.8359V44.3418C73.1227 44.2559 73.9284 44.0911 74.752 43.8477ZM91.6709 45.1367V41.6992C91.6709 40.7611 91.6566 40.1702 91.6279 39.9268C91.6064 39.6833 91.5062 39.4971 91.3271 39.3682C91.1481 39.2393 90.8294 39.1748 90.3711 39.1748H90.1455V38.6807C91.012 38.6592 91.9609 38.5088 92.9922 38.2295H93.2178V50.0566C93.2178 51.0807 93.2357 51.7038 93.2715 51.9258C93.3073 52.1478 93.4183 52.3125 93.6045 52.4199C93.7979 52.5273 94.1523 52.5811 94.668 52.5811V53.0752C93.6296 53.0967 92.7057 53.1898 91.8965 53.3545C91.8105 53.0179 91.7676 52.488 91.7676 51.7646C91.2376 52.2946 90.6898 52.6921 90.124 52.957C89.5654 53.222 88.9854 53.3545 88.3838 53.3545C87.2451 53.3545 86.2604 52.8962 85.4297 51.9795C84.6061 51.0628 84.1943 49.9528 84.1943 48.6494C84.1943 47.2171 84.6169 46.0605 85.4619 45.1797C86.307 44.2917 87.3132 43.8477 88.4805 43.8477C89.0749 43.8477 89.637 43.9551 90.167 44.1699C90.6969 44.3848 91.1982 44.707 91.6709 45.1367ZM91.6709 45.7598C91.1982 45.3516 90.722 45.0472 90.2422 44.8467C89.7695 44.639 89.2933 44.5352 88.8135 44.5352C88.0042 44.5352 87.3275 44.8467 86.7832 45.4697C86.2461 46.0928 85.9775 47.1097 85.9775 48.5205C85.9775 49.9528 86.2533 51.0091 86.8047 51.6895C87.3633 52.3698 88.0508 52.71 88.8672 52.71C89.4115 52.71 89.9163 52.5811 90.3818 52.3232C90.8473 52.0654 91.277 51.6787 91.6709 51.1631V45.7598ZM103.67 47.1777H97.5361C97.5075 47.6003 97.4932 47.9154 97.4932 48.123C97.4932 49.6699 97.7331 50.8337 98.2129 51.6143C98.6999 52.3877 99.4232 52.7744 100.383 52.7744C101.686 52.7744 102.61 52.1908 103.154 51.0234H103.67C103.441 51.7539 102.986 52.3268 102.306 52.7422C101.625 53.1504 100.884 53.3545 100.082 53.3545C99.3372 53.3545 98.6318 53.1683 97.9658 52.7959C97.307 52.4163 96.7663 51.8828 96.3438 51.1953C95.9212 50.5078 95.71 49.6735 95.71 48.6924C95.71 47.3031 96.1182 46.1501 96.9346 45.2334C97.751 44.3096 98.7715 43.8477 99.9961 43.8477C101.149 43.8477 102.041 44.1986 102.671 44.9004C103.301 45.6022 103.634 46.3613 103.67 47.1777ZM101.79 46.748C101.812 46.5833 101.822 46.4365 101.822 46.3076C101.822 45.6774 101.636 45.1904 101.264 44.8467C100.898 44.4958 100.447 44.3203 99.9102 44.3203C98.6068 44.3203 97.8298 45.1296 97.5791 46.748H101.79ZM108.171 46.0928C108.414 45.4554 108.808 44.9219 109.353 44.4922C109.904 44.0625 110.441 43.8477 110.964 43.8477C111.437 43.8477 111.809 43.9945 112.081 44.2881C112.353 44.5817 112.489 44.8825 112.489 45.1904C112.489 45.3981 112.418 45.5771 112.274 45.7275C112.138 45.8779 111.97 45.9531 111.77 45.9531C111.411 45.9531 111.139 45.6882 110.953 45.1582C110.824 44.8001 110.631 44.6211 110.373 44.6211C110.065 44.6211 109.696 44.8324 109.267 45.2549C108.837 45.6702 108.561 46.1035 108.439 46.5547C108.318 47.0059 108.257 47.6253 108.257 48.4131V49.9814C108.257 50.9196 108.268 51.5104 108.289 51.7539C108.318 51.9974 108.422 52.1836 108.601 52.3125C108.78 52.4414 109.098 52.5059 109.557 52.5059H109.857V53H105.185V52.5059H105.41C105.84 52.5059 106.144 52.4486 106.323 52.334C106.509 52.2122 106.62 52.0439 106.656 51.8291C106.692 51.6143 106.71 50.9984 106.71 49.9814V47.5C106.71 46.5547 106.696 45.9639 106.667 45.7275C106.646 45.484 106.545 45.2979 106.366 45.1689C106.187 45.0329 105.868 44.9648 105.41 44.9648H105.185V44.4814C105.858 44.4027 106.739 44.1914 107.827 43.8477C108.035 44.4134 108.149 45.1618 108.171 46.0928ZM115.465 38.2295V49.9814C115.465 50.9196 115.476 51.5104 115.497 51.7539C115.526 51.9974 115.63 52.1836 115.809 52.3125C115.988 52.4414 116.306 52.5059 116.765 52.5059H117.022V53H112.317V52.5059H112.618C113.048 52.5059 113.352 52.4486 113.531 52.334C113.717 52.2122 113.828 52.0439 113.864 51.8291C113.9 51.6143 113.918 50.9984 113.918 49.9814V41.2803C113.918 40.3564 113.836 39.7764 113.671 39.54C113.506 39.2965 113.105 39.1748 112.468 39.1748V38.6807C112.905 38.6807 113.417 38.6305 114.004 38.5303C114.598 38.43 115.007 38.3298 115.229 38.2295H115.465ZM127.066 51.3887H127.464C127.399 52.6133 126.798 53.2256 125.659 53.2256C125.172 53.2256 124.785 53.0967 124.499 52.8389C124.22 52.5811 124.037 52.1979 123.951 51.6895C123.235 52.1979 122.58 52.5811 121.985 52.8389C121.398 53.0967 120.872 53.2256 120.406 53.2256C119.812 53.2256 119.3 53.0537 118.87 52.71C118.44 52.3662 118.226 51.9115 118.226 51.3457C118.226 50.6081 118.584 49.9635 119.3 49.4121C120.023 48.8607 121.019 48.3236 122.286 47.8008L123.951 47.124V46.6943C123.951 46.0856 123.912 45.6452 123.833 45.373C123.754 45.1009 123.55 44.8574 123.221 44.6426C122.891 44.4277 122.458 44.3203 121.921 44.3203C120.847 44.3203 120.249 44.6784 120.127 45.3945C120.012 46.125 119.712 46.4902 119.225 46.4902C118.788 46.4902 118.569 46.2826 118.569 45.8672C118.569 45.459 118.859 45.0221 119.439 44.5566C120.02 44.084 120.922 43.8477 122.146 43.8477C123.056 43.8477 123.761 43.9909 124.263 44.2773C124.764 44.5638 125.093 44.8896 125.251 45.2549C125.416 45.6201 125.498 46.1787 125.498 46.9307V50.4863C125.498 51.3171 125.541 51.8506 125.627 52.0869C125.713 52.3232 125.899 52.4414 126.186 52.4414C126.658 52.4414 126.952 52.0905 127.066 51.3887ZM123.951 47.6289L122.78 48.1016C120.933 48.8535 120.009 49.7988 120.009 50.9375C120.009 51.3887 120.127 51.7539 120.363 52.0332C120.6 52.3053 120.908 52.4414 121.287 52.4414C121.624 52.4414 122.014 52.3304 122.458 52.1084C122.902 51.8864 123.4 51.5534 123.951 51.1094V47.6289ZM130.719 43.8477H131.009C131.174 44.2917 131.267 44.8968 131.288 45.6631C131.804 45.0544 132.344 44.5996 132.91 44.2988C133.476 43.998 134.067 43.8477 134.683 43.8477C135.384 43.8477 135.957 43.9945 136.401 44.2881C136.853 44.5817 137.143 44.9434 137.271 45.373C137.4 45.7956 137.465 46.415 137.465 47.2314V49.9814C137.465 50.9984 137.483 51.6178 137.519 51.8398C137.554 52.0618 137.665 52.2301 137.852 52.3447C138.045 52.4521 138.396 52.5059 138.904 52.5059V53H134.403V52.5059H134.607C135.123 52.5059 135.46 52.4307 135.617 52.2803C135.775 52.1299 135.864 51.9544 135.886 51.7539C135.907 51.5534 135.918 50.9626 135.918 49.9814V47.1455C135.918 46.4508 135.882 45.9567 135.811 45.6631C135.746 45.3623 135.563 45.0973 135.263 44.8682C134.969 44.639 134.593 44.5244 134.135 44.5244C133.612 44.5244 133.111 44.682 132.631 44.9971C132.158 45.305 131.711 45.7705 131.288 46.3936V49.9814C131.288 50.9984 131.306 51.6178 131.342 51.8398C131.385 52.0618 131.499 52.2301 131.686 52.3447C131.879 52.4521 132.233 52.5059 132.749 52.5059V53H128.302V52.5059C128.796 52.5059 129.14 52.4557 129.333 52.3555C129.526 52.2552 129.645 52.1048 129.688 51.9043C129.738 51.6966 129.763 51.0557 129.763 49.9814V47.3604C129.763 46.3363 129.741 45.7168 129.698 45.502C129.662 45.2799 129.548 45.1152 129.354 45.0078C129.168 44.8932 128.817 44.8359 128.302 44.8359V44.3418C129.09 44.2559 129.895 44.0911 130.719 43.8477ZM147.638 45.1367V41.6992C147.638 40.7611 147.623 40.1702 147.595 39.9268C147.573 39.6833 147.473 39.4971 147.294 39.3682C147.115 39.2393 146.796 39.1748 146.338 39.1748H146.112V38.6807C146.979 38.6592 147.928 38.5088 148.959 38.2295H149.185V50.0566C149.185 51.0807 149.202 51.7038 149.238 51.9258C149.274 52.1478 149.385 52.3125 149.571 52.4199C149.765 52.5273 150.119 52.5811 150.635 52.5811V53.0752C149.596 53.0967 148.673 53.1898 147.863 53.3545C147.777 53.0179 147.734 52.488 147.734 51.7646C147.204 52.2946 146.657 52.6921 146.091 52.957C145.532 53.222 144.952 53.3545 144.351 53.3545C143.212 53.3545 142.227 52.8962 141.396 51.9795C140.573 51.0628 140.161 49.9528 140.161 48.6494C140.161 47.2171 140.584 46.0605 141.429 45.1797C142.274 44.2917 143.28 43.8477 144.447 43.8477C145.042 43.8477 145.604 43.9551 146.134 44.1699C146.664 44.3848 147.165 44.707 147.638 45.1367ZM147.638 45.7598C147.165 45.3516 146.689 45.0472 146.209 44.8467C145.736 44.639 145.26 44.5352 144.78 44.5352C143.971 44.5352 143.294 44.8467 142.75 45.4697C142.213 46.0928 141.944 47.1097 141.944 48.5205C141.944 49.9528 142.22 51.0091 142.771 51.6895C143.33 52.3698 144.018 52.71 144.834 52.71C145.378 52.71 145.883 52.5811 146.349 52.3232C146.814 52.0654 147.244 51.6787 147.638 51.1631V45.7598ZM30.9141 72.1035L30.8164 76H19.5664V75.5508H19.957C20.5234 75.5508 20.9141 75.4792 21.1289 75.3359C21.3503 75.1927 21.4902 74.9714 21.5488 74.6719C21.6139 74.3659 21.6465 73.6595 21.6465 72.5527V66.0586C21.6465 65.0039 21.6139 64.3236 21.5488 64.0176C21.4902 63.7116 21.36 63.5 21.1582 63.3828C20.9629 63.2656 20.5299 63.207 19.8594 63.207H19.5664V62.7578H25.9238V63.207H25.3379C24.6868 63.207 24.2604 63.2624 24.0586 63.373C23.8568 63.4772 23.7201 63.6758 23.6484 63.9688C23.5833 64.2617 23.5508 64.9583 23.5508 66.0586V72.9922C23.5508 73.9492 23.5768 74.5482 23.6289 74.7891C23.681 75.0299 23.821 75.2188 24.0488 75.3555C24.2832 75.4857 24.7812 75.5508 25.543 75.5508H26.5488C27.3626 75.5508 27.9648 75.4792 28.3555 75.3359C28.7526 75.1927 29.127 74.8802 29.4785 74.3984C29.8366 73.9167 30.1621 73.1517 30.4551 72.1035H30.9141ZM39.0781 70.707H33.502C33.4759 71.0911 33.4629 71.3776 33.4629 71.5664C33.4629 72.9727 33.681 74.0306 34.1172 74.7402C34.5599 75.4434 35.2174 75.7949 36.0898 75.7949C37.2747 75.7949 38.1146 75.2643 38.6094 74.2031H39.0781C38.8698 74.8672 38.4564 75.388 37.8379 75.7656C37.2194 76.1367 36.5456 76.3223 35.8164 76.3223C35.1393 76.3223 34.498 76.153 33.8926 75.8145C33.2936 75.4694 32.8021 74.9844 32.418 74.3594C32.0339 73.7344 31.8418 72.9759 31.8418 72.084C31.8418 70.821 32.2129 69.7728 32.9551 68.9395C33.6973 68.0996 34.625 67.6797 35.7383 67.6797C36.7865 67.6797 37.597 67.9987 38.1699 68.6367C38.7428 69.2747 39.0456 69.9648 39.0781 70.707ZM37.3691 70.3164C37.3887 70.1667 37.3984 70.0332 37.3984 69.916C37.3984 69.3431 37.2292 68.9004 36.8906 68.5879C36.5586 68.2689 36.1484 68.1094 35.6602 68.1094C34.4753 68.1094 33.7689 68.8451 33.541 70.3164H37.3691ZM49.4395 76.3125H49L46.6172 69.9648L44.1855 76.3125H43.7559L41.3145 69.9648C41.0345 69.2422 40.8262 68.8092 40.6895 68.666C40.5527 68.5228 40.2793 68.4512 39.8691 68.4512V68.002H43.5215V68.4512C43.1113 68.4512 42.8314 68.4902 42.6816 68.5684C42.5319 68.64 42.457 68.7669 42.457 68.9492C42.457 69.0794 42.584 69.4603 42.8379 70.0918L44.459 74.3789L46.9395 68.002H47.3203L49.7227 74.3789L51.4805 69.8379C51.6693 69.3561 51.7637 69.0664 51.7637 68.9688C51.7637 68.6497 51.4349 68.4772 50.7773 68.4512V68.002H53.375V68.4512C53.0625 68.4577 52.8151 68.5195 52.6328 68.6367C52.457 68.7474 52.2943 69.0013 52.1445 69.3984L51.9297 69.9648L49.4395 76.3125ZM54.7324 63.5977C54.7324 63.3177 54.8301 63.0768 55.0254 62.875C55.2272 62.6732 55.4681 62.5723 55.748 62.5723C56.028 62.5723 56.2656 62.6732 56.4609 62.875C56.6562 63.0768 56.7539 63.3177 56.7539 63.5977C56.7539 63.8841 56.6562 64.1283 56.4609 64.3301C56.2656 64.5319 56.028 64.6328 55.748 64.6328C55.4681 64.6328 55.2272 64.5319 55.0254 64.3301C54.8301 64.1283 54.7324 63.8841 54.7324 63.5977ZM56.6172 67.6797V73.2559C56.6172 74.1087 56.6302 74.6458 56.6562 74.8672C56.6823 75.0885 56.7767 75.2578 56.9395 75.375C57.1022 75.4922 57.3919 75.5508 57.8086 75.5508H58.0137V76H53.707V75.5508H54.0391C54.5013 75.5508 54.8008 75.4857 54.9375 75.3555C55.0807 75.2188 55.1621 75.0592 55.1816 74.877C55.2077 74.6882 55.2207 74.1478 55.2207 73.2559V70.834C55.2207 69.8965 55.1751 69.3236 55.084 69.1152C54.9993 68.9069 54.8822 68.7767 54.7324 68.7246C54.5892 68.6725 54.3353 68.6465 53.9707 68.6465H53.707V68.1973C54.8659 68.0801 55.7643 67.9076 56.4023 67.6797H56.6172ZM59.2051 76.2539V73.627H59.5859C60.0286 75.1439 60.8197 75.9023 61.959 75.9023C62.4538 75.9023 62.8216 75.7526 63.0625 75.4531C63.3099 75.1536 63.4336 74.8249 63.4336 74.4668C63.4336 74.0501 63.3034 73.7083 63.043 73.4414C62.776 73.1745 62.2585 72.8522 61.4902 72.4746C60.6829 72.0775 60.1035 71.6868 59.752 71.3027C59.4004 70.9251 59.2246 70.4596 59.2246 69.9062C59.2246 69.3789 59.4134 68.8776 59.791 68.4023C60.1686 67.9206 60.6992 67.6797 61.3828 67.6797C62.0794 67.6797 62.6556 67.9629 63.1113 68.5293C63.209 68.4316 63.3359 68.194 63.4922 67.8164H63.8535V70.2871H63.4922C63.362 69.6947 63.1081 69.1868 62.7305 68.7637C62.3594 68.334 61.9199 68.1191 61.4121 68.1191C61.0215 68.1191 60.7057 68.2396 60.4648 68.4805C60.224 68.7214 60.1035 69.0013 60.1035 69.3203C60.1035 69.6719 60.237 69.9746 60.5039 70.2285C60.7643 70.4889 61.2624 70.7852 61.998 71.1172C63.1048 71.6185 63.7819 72.1068 64.0293 72.582C64.2767 73.0638 64.4004 73.526 64.4004 73.9688C64.4004 74.6654 64.1693 75.2318 63.707 75.668C63.2513 76.1042 62.6751 76.3223 61.9785 76.3223C61.2428 76.3223 60.5885 76.0195 60.0156 75.4141C59.8398 75.6094 59.6966 75.8893 59.5859 76.2539H59.2051ZM82.7109 71.0293H83.1309V75.668H82.7109C82.5938 75.1406 82.3822 74.6751 82.0762 74.2715C80.9108 75.5866 79.4232 76.2441 77.6133 76.2441C75.6992 76.2441 74.1335 75.6387 72.916 74.4277C71.7051 73.2168 71.0996 71.6152 71.0996 69.623C71.0996 68.3145 71.3796 67.084 71.9395 65.9316C72.4993 64.7728 73.2806 63.9134 74.2832 63.3535C75.2858 62.7936 76.3861 62.5137 77.584 62.5137C78.5736 62.5137 79.4688 62.7188 80.2695 63.1289C81.0768 63.5326 81.679 63.9818 82.0762 64.4766C82.3561 63.9232 82.5254 63.3503 82.584 62.7578H83.0137L83.1309 67.7773H82.7109C82.418 65.9935 81.819 64.7533 80.9141 64.0566C80.0156 63.36 79 63.0117 77.8672 63.0117C76.4805 63.0117 75.377 63.5749 74.5566 64.7012C73.7428 65.8275 73.3359 67.4388 73.3359 69.5352C73.3359 71.5208 73.7819 73.0443 74.6738 74.1055C75.5658 75.1602 76.6758 75.6875 78.0039 75.6875C78.7135 75.6875 79.4395 75.515 80.1816 75.1699C80.9238 74.8249 81.5098 74.2422 81.9395 73.4219C82.3757 72.5951 82.6328 71.7975 82.7109 71.0293ZM93.2578 74.5352H93.6191C93.5605 75.6484 93.0137 76.2051 91.9785 76.2051C91.5358 76.2051 91.1842 76.0879 90.9238 75.8535C90.6699 75.6191 90.5039 75.2708 90.4258 74.8086C89.7747 75.2708 89.179 75.6191 88.6387 75.8535C88.1048 76.0879 87.6263 76.2051 87.2031 76.2051C86.6628 76.2051 86.1973 76.0488 85.8066 75.7363C85.416 75.4238 85.2207 75.0104 85.2207 74.4961C85.2207 73.8255 85.5462 73.2396 86.1973 72.7383C86.8548 72.237 87.7598 71.7487 88.9121 71.2734L90.4258 70.6582V70.2676C90.4258 69.7142 90.39 69.3138 90.3184 69.0664C90.2467 68.819 90.0612 68.5977 89.7617 68.4023C89.4622 68.207 89.0684 68.1094 88.5801 68.1094C87.6035 68.1094 87.0599 68.4349 86.9492 69.0859C86.8451 69.75 86.5716 70.082 86.1289 70.082C85.7318 70.082 85.5332 69.8932 85.5332 69.5156C85.5332 69.1445 85.7969 68.7474 86.3242 68.3242C86.8516 67.8945 87.6719 67.6797 88.7852 67.6797C89.612 67.6797 90.2533 67.8099 90.709 68.0703C91.1647 68.3307 91.4642 68.627 91.6074 68.959C91.7572 69.291 91.832 69.7988 91.832 70.4824V73.7148C91.832 74.4701 91.8711 74.9551 91.9492 75.1699C92.0273 75.3848 92.1966 75.4922 92.457 75.4922C92.8867 75.4922 93.1536 75.1732 93.2578 74.5352ZM90.4258 71.1172L89.3613 71.5469C87.6816 72.2305 86.8418 73.0898 86.8418 74.125C86.8418 74.5352 86.9492 74.8672 87.1641 75.1211C87.3789 75.3685 87.6589 75.4922 88.0039 75.4922C88.3099 75.4922 88.6647 75.3913 89.0684 75.1895C89.472 74.9876 89.9245 74.6849 90.4258 74.2813V71.1172ZM97.1543 69.7207C97.3757 69.1413 97.7337 68.6562 98.2285 68.2656C98.7298 67.875 99.2181 67.6797 99.6934 67.6797C100.123 67.6797 100.462 67.8132 100.709 68.0801C100.956 68.347 101.08 68.6204 101.08 68.9004C101.08 69.0892 101.015 69.252 100.885 69.3887C100.761 69.5254 100.608 69.5938 100.426 69.5938C100.1 69.5938 99.8529 69.3529 99.6836 68.8711C99.5664 68.5456 99.3906 68.3828 99.1562 68.3828C98.8763 68.3828 98.541 68.5749 98.1504 68.959C97.7598 69.3366 97.5091 69.7305 97.3984 70.1406C97.2878 70.5508 97.2324 71.1139 97.2324 71.8301V73.2559C97.2324 74.1087 97.2422 74.6458 97.2617 74.8672C97.2878 75.0885 97.3822 75.2578 97.5449 75.375C97.7077 75.4922 97.9974 75.5508 98.4141 75.5508H98.6875V76H94.4395V75.5508H94.6445C95.0352 75.5508 95.3118 75.4987 95.4746 75.3945C95.6439 75.2839 95.7448 75.1309 95.7773 74.9355C95.8099 74.7402 95.8262 74.1803 95.8262 73.2559V71C95.8262 70.1406 95.8132 69.6035 95.7871 69.3887C95.7676 69.1673 95.6764 68.998 95.5137 68.8809C95.3509 68.7572 95.0612 68.6953 94.6445 68.6953H94.4395V68.2559C95.0514 68.1842 95.8522 67.9922 96.8418 67.6797C97.0306 68.194 97.1348 68.8743 97.1543 69.7207ZM101.48 71.9863C101.48 70.7624 101.891 69.7402 102.711 68.9199C103.531 68.0931 104.54 67.6797 105.738 67.6797C106.943 67.6797 107.955 68.0931 108.775 68.9199C109.596 69.7467 110.006 70.7689 110.006 71.9863C110.006 73.334 109.589 74.3952 108.756 75.1699C107.923 75.9382 106.917 76.3223 105.738 76.3223C104.56 76.3223 103.554 75.9316 102.721 75.1504C101.894 74.3626 101.48 73.3079 101.48 71.9863ZM103.102 72.0352C103.102 73.4544 103.333 74.4505 103.795 75.0234C104.257 75.5898 104.905 75.873 105.738 75.873C106.591 75.873 107.242 75.5898 107.691 75.0234C108.147 74.4505 108.375 73.4544 108.375 72.0352C108.375 70.6289 108.15 69.6263 107.701 69.0273C107.252 68.4284 106.598 68.1289 105.738 68.1289C104.885 68.1289 104.231 68.4284 103.775 69.0273C103.326 69.6198 103.102 70.6224 103.102 72.0352ZM113.805 62.5723L113.805 73.2559C113.805 74.1087 113.814 74.6458 113.834 74.8672C113.86 75.0885 113.954 75.2578 114.117 75.375C114.28 75.4922 114.57 75.5508 114.986 75.5508H115.221V76H110.943V75.5508H111.217C111.607 75.5508 111.884 75.4987 112.047 75.3945C112.216 75.2839 112.317 75.1309 112.35 74.9355C112.382 74.7402 112.398 74.1803 112.398 73.2559L112.398 65.3457C112.398 64.5059 112.324 63.9785 112.174 63.7637C112.024 63.5423 111.66 63.4316 111.08 63.4316V62.9824C111.477 62.9824 111.943 62.9368 112.477 62.8457C113.017 62.7546 113.388 62.6634 113.59 62.5723H113.805ZM118.609 62.5723L118.609 73.2559C118.609 74.1087 118.619 74.6458 118.639 74.8672C118.665 75.0885 118.759 75.2578 118.922 75.375C119.085 75.4922 119.374 75.5508 119.791 75.5508H120.025V76H115.748V75.5508H116.021C116.412 75.5508 116.689 75.4987 116.852 75.3945C117.021 75.2839 117.122 75.1309 117.154 74.9355C117.187 74.7402 117.203 74.1803 117.203 73.2559L117.203 65.3457C117.203 64.5059 117.128 63.9785 116.979 63.7637C116.829 63.5423 116.464 63.4316 115.885 63.4316V62.9824C116.282 62.9824 116.747 62.9368 117.281 62.8457C117.822 62.7546 118.193 62.6634 118.395 62.5723H118.609Z" fill="white"/>
<defs>
<filter id="filter0_d" x="0" y="0" width="223" height="93" filterUnits="userSpaceOnUse" color-interpolation-filters="sRGB">
<feFlood flood-opacity="0" result="BackgroundImageFix"/>
<feColorMatrix in="SourceAlpha" type="matrix" values="0 0 0 0 0 0 0 0 0 0 0 0 0 0 0 0 0 0 127 0"/>
<feOffset dy="4"/>
<feGaussianBlur stdDeviation="2"/>
<feColorMatrix type="matrix" values="0 0 0 0 0 0 0 0 0 0 0 0 0 0 0 0 0 0 0.25 0"/>
<feBlend mode="normal" in2="BackgroundImageFix" result="effect1_dropShadow"/>
<feBlend mode="normal" in="SourceGraphic" in2="effect1_dropShadow" result="shape"/>
</filter>
</defs>
</svg>
