<svg width="753" height="935" viewBox="0 0 753 935" fill="none" xmlns="http://www.w3.org/2000/svg">
<rect x="8" y="5" width="736" height="917" fill="#AC744D" fill-opacity="0.85" stroke="#6A3814" stroke-width="10"/>
<line x1="63.0032" y1="653.5" x2="695.003" y2="657.5" stroke="#6A3814"/>
<line x1="61.0008" y1="446.5" x2="692.001" y2="447.5" stroke="#6A3814"/>
<line x1="695.224" y1="657.553" x2="743.224" y2="681.553" stroke="#845939"/>
<line x1="689.189" y1="245.537" x2="743.189" y2="267.537" stroke="#845939"/>
<path d="M692.816 448.427L744.395 477.168" stroke="#845939"/>
<line x1="58.2428" y1="243.437" x2="13.2428" y2="268.437" stroke="#845939"/>
<line x1="60.2519" y1="447.432" x2="12.2519" y2="475.432" stroke="#845939"/>
<line x1="63.2406" y1="653.438" x2="12.2406" y2="681.438" stroke="#845939"/>
<line y1="-0.5" x2="57.6888" y2="-0.5" transform="matrix(0.83205 0.5547 0.5547 -0.83205 695 844)" stroke="#845939"/>
<line x1="59" y1="56.9934" x2="64.1933" y2="843.992" stroke="#845939" stroke-width="2"/>
<g filter="url(#filter0_d)">
<rect x="4" width="745" height="51" fill="#6A3814"/>
</g>
<g filter="url(#filter1_d)">
<rect x="4" y="876" width="745" height="51" fill="#6A3814"/>
</g>
<line x1="690" y1="56.9934" x2="695.193" y2="843.992" stroke="#845939" stroke-width="2"/>
<line x1="63.2774" y1="844.416" x2="15.2773" y2="876.416" stroke="#845939"/>
<line x1="63" y1="843.5" x2="695" y2="843.5" stroke="#6A3814"/>
<line x1="61.0023" y1="242.5" x2="692.003" y2="245.426" stroke="#6A3814"/>
<line x1="12.0274" y1="263" x2="743.027" y2="267" stroke="#6A3814" stroke-width="10"/>
<line x1="13.0274" y1="475" x2="744.027" y2="479" stroke="#6A3814" stroke-width="10"/>
<line x1="13.0274" y1="681" x2="744.027" y2="685" stroke="#6A3814" stroke-width="10"/>
<defs>
<filter id="filter0_d" x="0" y="0" width="753" height="59" filterUnits="userSpaceOnUse" color-interpolation-filters="sRGB">
<feFlood flood-opacity="0" result="BackgroundImageFix"/>
<feColorMatrix in="SourceAlpha" type="matrix" values="0 0 0 0 0 0 0 0 0 0 0 0 0 0 0 0 0 0 127 0"/>
<feOffset dy="4"/>
<feGaussianBlur stdDeviation="2"/>
<feColorMatrix type="matrix" values="0 0 0 0 0 0 0 0 0 0 0 0 0 0 0 0 0 0 0.25 0"/>
<feBlend mode="normal" in2="BackgroundImageFix" result="effect1_dropShadow"/>
<feBlend mode="normal" in="SourceGraphic" in2="effect1_dropShadow" result="shape"/>
</filter>
<filter id="filter1_d" x="0" y="876" width="753" height="59" filterUnits="userSpaceOnUse" color-interpolation-filters="sRGB">
<feFlood flood-opacity="0" result="BackgroundImageFix"/>
<feColorMatrix in="SourceAlpha" type="matrix" values="0 0 0 0 0 0 0 0 0 0 0 0 0 0 0 0 0 0 127 0"/>
<feOffset dy="4"/>
<feGaussianBlur stdDeviation="2"/>
<feColorMatrix type="matrix" values="0 0 0 0 0 0 0 0 0 0 0 0 0 0 0 0 0 0 0.25 0"/>
<feBlend mode="normal" in2="BackgroundImageFix" result="effect1_dropShadow"/>
<feBlend mode="normal" in="SourceGraphic" in2="effect1_dropShadow" result="shape"/>
</filter>
</defs>
</svg>
