<svg width="268" height="93" viewBox="0 0 268 93" fill="none" xmlns="http://www.w3.org/2000/svg">
<g filter="url(#filter0_d)">
<rect x="4" y="85" width="85" height="245.3" transform="rotate(-90 4 85)" fill="#F05658"/>
<rect x="4.5" y="84.5" width="84" height="244.3" transform="rotate(-90 4.5 84.5)" stroke="black" stroke-linejoin="round"/>
</g>
<path d="M11.9877 22.415H11.3363L11.4354 17.7988H30.0702L30.1693 22.415H29.5604C29.3433 21.1501 29.0459 20.2391 28.6683 19.6821C28.2907 19.1157 27.8848 18.7712 27.4506 18.6484C27.0163 18.5163 26.2753 18.4502 25.2274 18.4502H22.1405V32.0015C22.1405 33.5024 22.1735 34.4889 22.2396 34.9609C22.3151 35.4329 22.5087 35.7822 22.8202 36.0088C23.1317 36.2354 23.717 36.3486 24.576 36.3486H25.5106V37H15.9384V36.3486H16.9296C17.7509 36.3486 18.3173 36.2448 18.6288 36.0371C18.9497 35.8294 19.1527 35.5085 19.2377 35.0742C19.3321 34.6305 19.3793 33.6063 19.3793 32.0015V18.4502H16.5331C15.2964 18.4502 14.4657 18.5116 14.0409 18.6343C13.6161 18.7476 13.2149 19.1016 12.8373 19.6963C12.4691 20.291 12.1859 21.1973 11.9877 22.415ZM35.8617 27.3145C36.4281 26.5215 37.0606 25.9268 37.7592 25.5303C38.4672 25.1338 39.2413 24.9355 40.0814 24.9355C41.0349 24.9355 41.8231 25.1338 42.4462 25.5303C43.0787 25.9268 43.4893 26.4176 43.6781 27.0029C43.8669 27.5788 43.9613 28.5181 43.9613 29.8208V33.021C43.9613 34.3804 43.9849 35.2064 44.0321 35.499C44.0887 35.7917 44.2445 36.0088 44.4994 36.1504C44.7543 36.2826 45.2263 36.3486 45.9154 36.3486V37H39.9257V36.3486H40.1947C40.8838 36.3486 41.3275 36.2495 41.5258 36.0513C41.7334 35.853 41.8514 35.6217 41.8798 35.3574C41.9175 35.0837 41.9364 34.3049 41.9364 33.021V29.5376C41.9364 28.5747 41.8798 27.862 41.7665 27.3994C41.6532 26.9368 41.3842 26.5545 40.9594 26.2524C40.544 25.9504 40.0201 25.7993 39.3876 25.7993C38.6512 25.7993 37.9904 26.0164 37.4052 26.4507C36.8199 26.8755 36.3054 27.5174 35.8617 28.3765V33.021C35.8617 34.3237 35.8806 35.1261 35.9183 35.4282C35.9655 35.7303 36.1119 35.9616 36.3573 36.1221C36.6027 36.2731 37.0511 36.3486 37.7025 36.3486V37H31.8119V36.3486H32.1093C32.7889 36.3486 33.2279 36.2542 33.4261 36.0654C33.6338 35.8672 33.7518 35.6359 33.7802 35.3716C33.8179 35.0978 33.8368 34.3143 33.8368 33.021V21.4663C33.8368 20.2957 33.7235 19.5547 33.4969 19.2432C33.2798 18.9316 32.7512 18.7759 31.911 18.7759V18.1245C33.3742 18.1245 34.592 17.9263 35.5643 17.5298H35.8617V27.3145ZM58.1215 29.3252H50.036C49.9983 29.8822 49.9794 30.2975 49.9794 30.5713C49.9794 32.6104 50.2956 34.1444 50.9281 35.1733C51.57 36.1929 52.5235 36.7026 53.7885 36.7026C55.5066 36.7026 56.7243 35.9333 57.4418 34.3945H58.1215C57.8194 35.3574 57.2199 36.1126 56.3231 36.6602C55.4263 37.1982 54.4493 37.4673 53.392 37.4673C52.4102 37.4673 51.4803 37.2218 50.6024 36.731C49.7339 36.2306 49.0212 35.5273 48.4642 34.6211C47.9073 33.7148 47.6288 32.6151 47.6288 31.3218C47.6288 29.4904 48.1669 27.9705 49.243 26.7622C50.3192 25.5444 51.6644 24.9355 53.2787 24.9355C54.7985 24.9355 55.9738 25.3981 56.8046 26.3232C57.6353 27.2484 58.0743 28.249 58.1215 29.3252ZM55.6434 28.7588C55.6718 28.5417 55.6859 28.3481 55.6859 28.1782C55.6859 27.3475 55.4405 26.7056 54.9496 26.2524C54.4681 25.7899 53.8734 25.5586 53.1654 25.5586C51.4473 25.5586 50.4231 26.6253 50.0927 28.7588H55.6434ZM67.8636 22.415H67.2123L67.3114 17.7988H85.9462L86.0453 22.415H85.4364C85.2193 21.1501 84.9219 20.2391 84.5443 19.6821C84.1667 19.1157 83.7608 18.7712 83.3265 18.6484C82.8923 18.5163 82.1512 18.4502 81.1034 18.4502H78.0165V32.0015C78.0165 33.5024 78.0495 34.4889 78.1156 34.9609C78.1911 35.4329 78.3846 35.7822 78.6962 36.0088C79.0077 36.2354 79.593 36.3486 80.452 36.3486H81.3866V37H71.8143V36.3486H72.8055C73.6268 36.3486 74.1932 36.2448 74.5048 36.0371C74.8257 35.8294 75.0287 35.5085 75.1136 35.0742C75.208 34.6305 75.2552 33.6063 75.2552 32.0015V18.4502H72.4091C71.1724 18.4502 70.3417 18.5116 69.9169 18.6343C69.4921 18.7476 69.0909 19.1016 68.7133 19.6963C68.3451 20.291 68.0619 21.1973 67.8636 22.415ZM88.6649 19.0166C88.6649 18.6107 88.8065 18.2614 89.0897 17.9688C89.3824 17.6761 89.7316 17.5298 90.1376 17.5298C90.5435 17.5298 90.8881 17.6761 91.1713 17.9688C91.4545 18.2614 91.5961 18.6107 91.5961 19.0166C91.5961 19.432 91.4545 19.786 91.1713 20.0786C90.8881 20.3713 90.5435 20.5176 90.1376 20.5176C89.7316 20.5176 89.3824 20.3713 89.0897 20.0786C88.8065 19.786 88.6649 19.432 88.6649 19.0166ZM91.3978 24.9355V33.021C91.3978 34.2576 91.4167 35.0365 91.4545 35.3574C91.4922 35.6784 91.6291 35.9238 91.8651 36.0938C92.1011 36.2637 92.5212 36.3486 93.1254 36.3486H93.4227V37H87.1781V36.3486H87.6595C88.3298 36.3486 88.764 36.2542 88.9623 36.0654C89.17 35.8672 89.288 35.6359 89.3163 35.3716C89.354 35.0978 89.3729 34.3143 89.3729 33.021V29.5093C89.3729 28.1499 89.3068 27.3192 89.1747 27.0171C89.052 26.715 88.882 26.5262 88.6649 26.4507C88.4572 26.3752 88.0891 26.3374 87.5604 26.3374H87.1781V25.686C88.8584 25.5161 90.1612 25.266 91.0863 24.9355H91.3978ZM98.0389 24.9355H98.1805C98.4543 25.568 98.5912 26.3799 98.5912 27.3711C99.2237 26.5592 99.9034 25.9504 100.63 25.5444C101.367 25.1385 102.155 24.9355 102.995 24.9355C103.948 24.9355 104.723 25.1527 105.317 25.5869C105.912 26.0212 106.327 26.6725 106.563 27.541C107.281 26.6725 108.017 26.0212 108.772 25.5869C109.528 25.1527 110.297 24.9355 111.08 24.9355C111.977 24.9355 112.737 25.1432 113.36 25.5586C113.983 25.974 114.361 26.446 114.493 26.9746C114.625 27.5033 114.691 28.3576 114.691 29.5376V33.021C114.691 34.3709 114.715 35.1922 114.762 35.4849C114.819 35.7775 114.97 35.9946 115.215 36.1362C115.47 36.2778 115.937 36.3486 116.617 36.3486V37H110.826V36.3486C111.439 36.3486 111.869 36.2826 112.114 36.1504C112.369 36.0088 112.525 35.8011 112.581 35.5273C112.638 35.2441 112.666 34.4087 112.666 33.021V29.1553C112.666 28.3717 112.619 27.7817 112.525 27.3853C112.44 26.9888 112.209 26.6489 111.831 26.3657C111.453 26.0825 110.962 25.9409 110.358 25.9409C109.745 25.9409 109.126 26.1486 108.503 26.564C107.89 26.9793 107.271 27.6071 106.648 28.4473V33.021C106.648 34.2576 106.662 35.0365 106.691 35.3574C106.729 35.6689 106.861 35.9144 107.087 36.0938C107.323 36.2637 107.739 36.3486 108.333 36.3486V37H102.726V36.3486C103.358 36.3486 103.797 36.2826 104.043 36.1504C104.298 36.0182 104.453 35.8153 104.51 35.5415C104.576 35.2677 104.609 34.4276 104.609 33.021V29.8066C104.609 28.7871 104.567 28.0508 104.482 27.5977C104.406 27.1351 104.166 26.7433 103.76 26.4224C103.354 26.092 102.849 25.9268 102.245 25.9268C101.659 25.9268 101.06 26.1156 100.446 26.4932C99.842 26.8708 99.2237 27.4372 98.5912 28.1924V33.021C98.5912 34.2954 98.6101 35.0884 98.6478 35.3999C98.6856 35.7114 98.8272 35.9474 99.0726 36.1079C99.3181 36.2684 99.757 36.3486 100.39 36.3486V37L94.7113 37V36.3486C95.3344 36.3486 95.7686 36.2826 96.014 36.1504C96.2689 36.0088 96.4247 35.8011 96.4813 35.5273C96.538 35.2536 96.5663 34.4181 96.5663 33.021V29.5518C96.5663 28.2301 96.5427 27.423 96.4955 27.1304C96.4577 26.8283 96.3114 26.6017 96.0565 26.4507C95.8111 26.2996 95.3627 26.2241 94.7113 26.2241V25.5728C96.0518 25.4406 97.161 25.2282 98.0389 24.9355ZM128.837 29.3252H120.752C120.714 29.8822 120.695 30.2975 120.695 30.5713C120.695 32.6104 121.011 34.1444 121.644 35.1733C122.286 36.1929 123.239 36.7026 124.504 36.7026C126.222 36.7026 127.44 35.9333 128.158 34.3945H128.837C128.535 35.3574 127.936 36.1126 127.039 36.6602C126.142 37.1982 125.165 37.4673 124.108 37.4673C123.126 37.4673 122.196 37.2218 121.318 36.731C120.45 36.2306 119.737 35.5273 119.18 34.6211C118.623 33.7148 118.345 32.6151 118.345 31.3218C118.345 29.4904 118.883 27.9705 119.959 26.7622C121.035 25.5444 122.38 24.9355 123.995 24.9355C125.514 24.9355 126.69 25.3981 127.52 26.3232C128.351 27.2484 128.79 28.249 128.837 29.3252ZM126.359 28.7588C126.388 28.5417 126.402 28.3481 126.402 28.1782C126.402 27.3475 126.156 26.7056 125.665 26.2524C125.184 25.7899 124.589 25.5586 123.881 25.5586C122.163 25.5586 121.139 26.6253 120.808 28.7588H126.359ZM150.644 33.6865L157.639 17.7988H163.53V18.4502H162.822C161.878 18.4502 161.259 18.5304 160.967 18.6909C160.674 18.842 160.476 19.1299 160.372 19.5547C160.278 19.9795 160.23 20.9896 160.23 22.585V32.0015C160.23 33.5119 160.268 34.5031 160.344 34.9751C160.419 35.4377 160.608 35.7822 160.91 36.0088C161.222 36.2354 161.812 36.3486 162.68 36.3486H163.53V37H154.354V36.3486H155.034C155.845 36.3486 156.407 36.2448 156.719 36.0371C157.04 35.8294 157.243 35.5085 157.328 35.0742C157.422 34.6305 157.469 33.6063 157.469 32.0015V19.7813L149.865 37H149.2L141.539 19.7813V31.0244C141.539 32.5632 141.586 33.611 141.681 34.168C141.775 34.7249 142.068 35.2158 142.558 35.6406C143.049 36.056 143.738 36.292 144.626 36.3486V37H137.758V36.3486C138.579 36.3014 139.245 36.0796 139.755 35.6831C140.274 35.2772 140.59 34.7816 140.703 34.1963C140.817 33.611 140.873 32.5254 140.873 30.9395V22.585C140.873 21.0557 140.826 20.0692 140.732 19.6255C140.647 19.1818 140.458 18.875 140.165 18.7051C139.882 18.5352 139.254 18.4502 138.282 18.4502H137.758V17.7988H143.606L150.644 33.6865ZM176.869 34.876H177.392C177.307 36.4902 176.515 37.2974 175.014 37.2974C174.372 37.2974 173.862 37.1274 173.484 36.7876C173.116 36.4478 172.875 35.9427 172.762 35.2725C171.818 35.9427 170.954 36.4478 170.171 36.7876C169.397 37.1274 168.703 37.2974 168.089 37.2974C167.306 37.2974 166.631 37.0708 166.064 36.6177C165.498 36.1646 165.215 35.5651 165.215 34.8193C165.215 33.847 165.687 32.9974 166.631 32.2705C167.584 31.5436 168.896 30.8356 170.567 30.1465L172.762 29.2544V28.688C172.762 27.8856 172.71 27.305 172.606 26.9463C172.502 26.5876 172.233 26.2666 171.799 25.9834C171.365 25.7002 170.794 25.5586 170.086 25.5586C168.67 25.5586 167.882 26.0306 167.721 26.9746C167.57 27.9375 167.174 28.4189 166.532 28.4189C165.956 28.4189 165.668 28.1452 165.668 27.5977C165.668 27.0596 166.05 26.4837 166.815 25.8701C167.579 25.2471 168.769 24.9355 170.383 24.9355C171.582 24.9355 172.512 25.1243 173.173 25.502C173.834 25.8796 174.268 26.3091 174.475 26.7905C174.693 27.272 174.801 28.0083 174.801 28.9995V33.6865C174.801 34.7816 174.858 35.4849 174.971 35.7964C175.084 36.1079 175.33 36.2637 175.707 36.2637C176.33 36.2637 176.717 35.8011 176.869 34.876ZM172.762 29.9199L171.219 30.543C168.783 31.5342 167.565 32.7803 167.565 34.2813C167.565 34.876 167.721 35.3574 168.033 35.7256C168.344 36.0843 168.75 36.2637 169.25 36.2637C169.694 36.2637 170.209 36.1174 170.794 35.8247C171.379 35.5321 172.035 35.0931 172.762 34.5078V29.9199ZM188.777 34.168H189.4C188.758 36.3675 187.154 37.4673 184.586 37.4673C182.934 37.4673 181.541 36.9056 180.409 35.7822C179.285 34.6589 178.724 33.172 178.724 31.3218C178.724 29.4243 179.332 27.8856 180.55 26.7056C181.768 25.5256 183.208 24.9355 184.869 24.9355C185.87 24.9355 186.79 25.1574 187.63 25.6011C188.47 26.0353 188.891 26.5687 188.891 27.2012C188.891 27.4372 188.81 27.659 188.65 27.8667C188.499 28.0744 188.277 28.1782 187.984 28.1782C187.361 28.1782 186.979 27.8148 186.837 27.0879C186.724 26.5404 186.549 26.158 186.313 25.9409C186.068 25.7238 185.591 25.6152 184.883 25.6152C183.618 25.6152 182.665 26.0542 182.023 26.9321C181.39 27.8101 181.074 29.1317 181.074 30.897C181.074 32.7189 181.414 34.1444 182.094 35.1733C182.783 36.2023 183.821 36.7168 185.209 36.7168C187.078 36.7168 188.267 35.8672 188.777 34.168ZM194.484 27.3145C195.05 26.5215 195.683 25.9268 196.381 25.5303C197.089 25.1338 197.863 24.9355 198.703 24.9355C199.657 24.9355 200.445 25.1338 201.068 25.5303C201.701 25.9268 202.111 26.4176 202.3 27.0029C202.489 27.5788 202.583 28.5181 202.583 29.8208V33.021C202.583 34.3804 202.607 35.2064 202.654 35.499C202.711 35.7917 202.867 36.0088 203.121 36.1504C203.376 36.2826 203.848 36.3486 204.537 36.3486V37L198.548 37V36.3486L198.817 36.3486C199.506 36.3486 199.95 36.2495 200.148 36.0513C200.356 35.853 200.474 35.6217 200.502 35.3574C200.54 35.0837 200.558 34.3049 200.558 33.021V29.5376C200.558 28.5747 200.502 27.862 200.389 27.3994C200.275 26.9368 200.006 26.5545 199.581 26.2524C199.166 25.9504 198.642 25.7993 198.01 25.7993C197.273 25.7993 196.613 26.0164 196.027 26.4507C195.442 26.8755 194.927 27.5174 194.484 28.3765V33.021C194.484 34.3237 194.503 35.1261 194.54 35.4282C194.588 35.7303 194.734 35.9616 194.979 36.1221C195.225 36.2731 195.673 36.3486 196.325 36.3486V37H190.434V36.3486H190.731C191.411 36.3486 191.85 36.2542 192.048 36.0654C192.256 35.8672 192.374 35.6359 192.402 35.3716C192.44 35.0978 192.459 34.3143 192.459 33.021V21.4663C192.459 20.2957 192.346 19.5547 192.119 19.2432C191.902 18.9316 191.373 18.7759 190.533 18.7759V18.1245C191.996 18.1245 193.214 17.9263 194.186 17.5298L194.484 17.5298V27.3145ZM207.1 19.0166C207.1 18.6107 207.242 18.2614 207.525 17.9688C207.818 17.6761 208.167 17.5298 208.573 17.5298C208.979 17.5298 209.324 17.6761 209.607 17.9688C209.89 18.2614 210.032 18.6107 210.032 19.0166C210.032 19.432 209.89 19.786 209.607 20.0786C209.324 20.3713 208.979 20.5176 208.573 20.5176C208.167 20.5176 207.818 20.3713 207.525 20.0786C207.242 19.786 207.1 19.432 207.1 19.0166ZM209.833 24.9355V33.021C209.833 34.2576 209.852 35.0365 209.89 35.3574C209.928 35.6784 210.065 35.9238 210.301 36.0938C210.537 36.2637 210.957 36.3486 211.561 36.3486H211.858V37H205.614V36.3486H206.095C206.765 36.3486 207.2 36.2542 207.398 36.0654C207.606 35.8672 207.724 35.6359 207.752 35.3716C207.79 35.0978 207.808 34.3143 207.808 33.021V29.5093C207.808 28.1499 207.742 27.3192 207.61 27.0171C207.488 26.715 207.318 26.5262 207.1 26.4507C206.893 26.3752 206.525 26.3374 205.996 26.3374H205.614V25.686C207.294 25.5161 208.597 25.266 209.522 24.9355H209.833ZM216.404 24.9355H216.786C217.003 25.5208 217.126 26.3185 217.154 27.3286C217.834 26.5262 218.547 25.9268 219.292 25.5303C220.038 25.1338 220.817 24.9355 221.629 24.9355C222.554 24.9355 223.309 25.1291 223.894 25.5161C224.489 25.9032 224.871 26.3799 225.041 26.9463C225.211 27.5033 225.296 28.3198 225.296 29.396V33.021C225.296 34.3615 225.32 35.1781 225.367 35.4707C225.414 35.7633 225.561 35.9852 225.806 36.1362C226.061 36.2778 226.523 36.3486 227.194 36.3486V37H221.261V36.3486H221.53C222.209 36.3486 222.653 36.2495 222.861 36.0513C223.068 35.853 223.186 35.6217 223.215 35.3574C223.243 35.0931 223.257 34.3143 223.257 33.021V29.2827C223.257 28.367 223.21 27.7157 223.116 27.3286C223.031 26.9321 222.79 26.5828 222.393 26.2808C222.006 25.9787 221.511 25.8276 220.907 25.8276C220.217 25.8276 219.557 26.0353 218.924 26.4507C218.301 26.8566 217.711 27.4702 217.154 28.2915V33.021C217.154 34.3615 217.178 35.1781 217.225 35.4707C217.282 35.7633 217.433 35.9852 217.678 36.1362C217.933 36.2778 218.4 36.3486 219.08 36.3486V37H213.218V36.3486C213.869 36.3486 214.322 36.2826 214.577 36.1504C214.832 36.0182 214.988 35.82 215.044 35.5557C215.11 35.2819 215.143 34.437 215.143 33.021V29.5659C215.143 28.216 215.115 27.3994 215.058 27.1162C215.011 26.8236 214.86 26.6064 214.605 26.4648C214.36 26.3138 213.897 26.2383 213.218 26.2383V25.5869C214.256 25.4736 215.318 25.2565 216.404 24.9355ZM239.4 29.3252L231.314 29.3252C231.277 29.8822 231.258 30.2975 231.258 30.5713C231.258 32.6104 231.574 34.1444 232.206 35.1733C232.848 36.1929 233.802 36.7026 235.067 36.7026C236.785 36.7026 238.003 35.9333 238.72 34.3945H239.4C239.098 35.3574 238.498 36.1126 237.601 36.6602C236.705 37.1982 235.728 37.4673 234.67 37.4673C233.689 37.4673 232.759 37.2218 231.881 36.731C231.012 36.2306 230.3 35.5273 229.743 34.6211C229.186 33.7148 228.907 32.6151 228.907 31.3218C228.907 29.4904 229.445 27.9705 230.521 26.7622C231.598 25.5444 232.943 24.9355 234.557 24.9355C236.077 24.9355 237.252 25.3981 238.083 26.3232C238.914 27.2484 239.353 28.249 239.4 29.3252ZM236.922 28.7588C236.95 28.5417 236.964 28.3481 236.964 28.1782C236.964 27.3475 236.719 26.7056 236.228 26.2524C235.746 25.7899 235.152 25.5586 234.444 25.5586C232.726 25.5586 231.701 26.6253 231.371 28.7588L236.922 28.7588ZM23.222 54.6953H15.6166L15.6166 58.208C15.6166 59.3538 15.6452 60.1058 15.7025 60.4639C15.7598 60.8148 15.903 61.0762 16.1322 61.248C16.3685 61.4199 16.8125 61.5059 17.4642 61.5059H17.8402V62H11.2875V61.5059H11.6635C12.2865 61.5059 12.7162 61.4271 12.9525 61.2695C13.196 61.112 13.35 60.8685 13.4144 60.5391C13.486 60.2025 13.5219 59.4255 13.5219 58.208V51.0645C13.5219 49.9043 13.486 49.1559 13.4144 48.8193C13.35 48.4827 13.2067 48.25 12.9847 48.1211C12.7699 47.9922 12.2937 47.9277 11.556 47.9277H11.2875V47.4336H17.8402V47.9277H17.5717C16.8627 47.9277 16.3972 47.9886 16.1752 48.1104C15.9532 48.2249 15.8028 48.4434 15.724 48.7656C15.6524 49.0879 15.6166 49.8542 15.6166 51.0645V53.9541H23.222V51.0645C23.222 49.9043 23.1898 49.1559 23.1254 48.8193C23.0609 48.4827 22.9177 48.25 22.6957 48.1211C22.4808 47.9922 22.0046 47.9277 21.267 47.9277H20.8802V47.4336H27.5082V47.9277H27.2933C26.5772 47.9277 26.1081 47.9886 25.8861 48.1104C25.6641 48.2249 25.5137 48.4434 25.4349 48.7656C25.3633 49.0879 25.3275 49.8542 25.3275 51.0645V58.208C25.3275 59.3538 25.3526 60.1058 25.4027 60.4639C25.46 60.8148 25.6068 61.0762 25.8431 61.248C26.0795 61.4199 26.5235 61.5059 27.1752 61.5059H27.5082V62H20.8802V61.5059H21.3851C22.001 61.5059 22.4271 61.4271 22.6635 61.2695C22.9069 61.112 23.0609 60.8685 23.1254 60.5391C23.1898 60.2025 23.222 59.4255 23.222 58.208V54.6953ZM29.8392 61.1943C29.8392 60.8792 29.9502 60.6107 30.1722 60.3887C30.4014 60.1595 30.6735 60.0449 30.9886 60.0449C31.3109 60.0449 31.583 60.1595 31.8051 60.3887C32.0342 60.6107 32.1488 60.8792 32.1488 61.1943C32.1488 61.5166 32.0342 61.7887 31.8051 62.0107C31.5759 62.2399 31.3038 62.3545 30.9886 62.3545C30.6664 62.3545 30.3942 62.2363 30.1722 62C29.9502 61.7708 29.8392 61.5023 29.8392 61.1943ZM43.9115 55.7803L50.1957 55.7803V56.2959C49.501 56.2959 49.0284 56.3675 48.7777 56.5107C48.5342 56.6468 48.3731 56.8796 48.2943 57.209C48.2155 57.5313 48.1761 58.319 48.1761 59.5723V61.1191C48.0043 61.0905 47.8503 61.0762 47.7142 61.0762C47.1628 61.0762 46.4395 61.2445 45.5443 61.5811C44.3269 62.0394 43.1989 62.2686 42.1605 62.2686C40.0765 62.2686 38.3435 61.5846 36.9613 60.2168C35.5791 58.8418 34.8881 57.1016 34.8881 54.9961C34.8881 52.9121 35.5469 51.0859 36.8646 49.5176C38.1823 47.9492 39.9727 47.165 42.2357 47.165C44.1836 47.165 45.795 47.8812 47.0697 49.3135C47.306 48.8122 47.4564 48.2715 47.5209 47.6914H48.0365V52.5576H47.5209C47.3132 51.0609 46.7439 49.8757 45.8129 49.002C44.889 48.1283 43.7647 47.6914 42.4398 47.6914C41.072 47.6914 39.8796 48.1999 38.8627 49.2168C37.8457 50.2337 37.3373 52.0384 37.3373 54.6309C37.3373 57.2161 37.8278 59.0495 38.809 60.1309C39.7901 61.2051 41.0075 61.7422 42.4613 61.7422C43.2061 61.7422 43.8829 61.5918 44.4916 61.291C45.1003 60.9831 45.5157 60.6107 45.7377 60.1738C45.9597 59.737 46.0707 59.1855 46.0707 58.5195C46.0707 57.7389 46.017 57.2197 45.9095 56.9619C45.8093 56.6969 45.6517 56.5215 45.4369 56.4355C45.222 56.3424 44.8282 56.2959 44.2552 56.2959H43.9115V55.7803ZM51.0658 61.1943C51.0658 60.8792 51.1768 60.6107 51.3988 60.3887C51.628 60.1595 51.9001 60.0449 52.2152 60.0449C52.5375 60.0449 52.8096 60.1595 53.0316 60.3887C53.2608 60.6107 53.3754 60.8792 53.3754 61.1943C53.3754 61.5166 53.2608 61.7887 53.0316 62.0107C52.8024 62.2399 52.5303 62.3545 52.2152 62.3545C51.8929 62.3545 51.6208 62.2363 51.3988 62C51.1768 61.7708 51.0658 61.5023 51.0658 61.1943ZM75.6654 62.3545H75.182L70.7455 50.3447L66.8676 62.3545H66.3519L62.8392 51.0107C62.5241 49.9795 62.295 49.2956 62.1517 48.959C62.0157 48.6152 61.833 48.3646 61.6039 48.207C61.3819 48.0423 61.0095 47.9492 60.4867 47.9277V47.4336H65.9545V47.9277C65.2956 47.9707 64.8731 48.0674 64.6869 48.2178C64.5007 48.361 64.4076 48.5651 64.4076 48.8301C64.4076 49.0664 64.558 49.6715 64.8588 50.6455L67.4584 59.1318L71.2611 47.4336H71.8627L76.1381 59.1318L78.3617 51.3975C78.6553 50.3519 78.8021 49.668 78.8021 49.3457C78.8021 48.4004 78.2972 47.9277 77.2875 47.9277V47.4336H81.2621V47.9277C80.6748 47.9707 80.238 48.1891 79.9515 48.583C79.6651 48.9697 79.3034 49.9043 78.8666 51.3867L75.6654 62.3545ZM88.2875 56.1777H82.1537C82.125 56.6003 82.1107 56.9154 82.1107 57.123C82.1107 58.6699 82.3506 59.8337 82.8304 60.6143C83.3174 61.3877 84.0407 61.7744 85.0004 61.7744C86.3038 61.7744 87.2276 61.1908 87.7719 60.0234H88.2875C88.0583 60.7539 87.6036 61.3268 86.9232 61.7422C86.2429 62.1504 85.5017 62.3545 84.6996 62.3545C83.9548 62.3545 83.2494 62.1683 82.5834 61.7959C81.9245 61.4163 81.3838 60.8828 80.9613 60.1953C80.5388 59.5078 80.3275 58.6735 80.3275 57.6924C80.3275 56.3031 80.7357 55.1501 81.5521 54.2334C82.3685 53.3096 83.389 52.8477 84.6136 52.8477C85.7666 52.8477 86.6582 53.1986 87.2885 53.9004C87.9187 54.6022 88.2517 55.3613 88.2875 56.1777ZM86.4076 55.748C86.4291 55.5833 86.4398 55.4365 86.4398 55.3076C86.4398 54.6774 86.2536 54.1904 85.8812 53.8467C85.516 53.4958 85.0648 53.3203 84.5277 53.3203C83.2243 53.3203 82.4473 54.1296 82.1967 55.748H86.4076ZM92.4984 47.2295V58.9814C92.4984 59.9196 92.5092 60.5104 92.5306 60.7539C92.5593 60.9974 92.6631 61.1836 92.8422 61.3125C93.0212 61.4414 93.3399 61.5059 93.7982 61.5059H94.056V62H89.351V61.5059H89.6517C90.0814 61.5059 90.3858 61.4486 90.5648 61.334C90.751 61.2122 90.862 61.0439 90.8978 60.8291C90.9336 60.6143 90.9515 59.9984 90.9515 58.9814V50.2803C90.9515 49.3564 90.8692 48.7764 90.7045 48.54C90.5398 48.2965 90.1387 48.1748 89.5013 48.1748V47.6807C89.9382 47.6807 90.4502 47.6305 91.0375 47.5303C91.6319 47.43 92.0401 47.3298 92.2621 47.2295H92.4984ZM97.7836 47.2295V58.9814C97.7836 59.9196 97.7943 60.5104 97.8158 60.7539C97.8444 60.9974 97.9483 61.1836 98.1273 61.3125C98.3064 61.4414 98.625 61.5059 99.0834 61.5059H99.3412V62H94.6361V61.5059H94.9369C95.3666 61.5059 95.6709 61.4486 95.85 61.334C96.0362 61.2122 96.1472 61.0439 96.183 60.8291C96.2188 60.6143 96.2367 59.9984 96.2367 58.9814V50.2803C96.2367 49.3564 96.1543 48.7764 95.9896 48.54C95.8249 48.2965 95.4239 48.1748 94.7865 48.1748V47.6807C95.2233 47.6807 95.7354 47.6305 96.3226 47.5303C96.917 47.43 97.3252 47.3298 97.5472 47.2295H97.7836ZM100.587 62.2793V59.3896H101.006C101.493 61.0583 102.363 61.8926 103.617 61.8926C104.161 61.8926 104.565 61.7279 104.83 61.3984C105.103 61.069 105.239 60.7074 105.239 60.3135C105.239 59.8551 105.095 59.4792 104.809 59.1855C104.515 58.8919 103.946 58.5374 103.101 58.1221C102.213 57.6852 101.576 57.2555 101.189 56.833C100.802 56.4176 100.609 55.9056 100.609 55.2969C100.609 54.7168 100.816 54.1654 101.232 53.6426C101.647 53.1126 102.231 52.8477 102.983 52.8477C103.749 52.8477 104.383 53.1592 104.884 53.7822C104.992 53.6748 105.131 53.4134 105.303 52.998H105.701V55.7158H105.303C105.16 55.0641 104.881 54.5055 104.465 54.04C104.057 53.5674 103.574 53.3311 103.015 53.3311C102.585 53.3311 102.238 53.4635 101.973 53.7285C101.708 53.9935 101.576 54.3014 101.576 54.6523C101.576 55.0391 101.722 55.3721 102.016 55.6514C102.302 55.9378 102.85 56.2637 103.66 56.6289C104.877 57.1803 105.622 57.7174 105.894 58.2402C106.166 58.7702 106.302 59.2786 106.302 59.7656C106.302 60.5319 106.048 61.1549 105.539 61.6348C105.038 62.1146 104.404 62.3545 103.638 62.3545C102.829 62.3545 102.109 62.0215 101.479 61.3555C101.286 61.5703 101.128 61.8783 101.006 62.2793H100.587Z" fill="white"/>
<defs>
<filter id="filter0_d" x="0" y="0" width="253.3" height="93" filterUnits="userSpaceOnUse" color-interpolation-filters="sRGB">
<feFlood flood-opacity="0" result="BackgroundImageFix"/>
<feColorMatrix in="SourceAlpha" type="matrix" values="0 0 0 0 0 0 0 0 0 0 0 0 0 0 0 0 0 0 127 0"/>
<feOffset dy="4"/>
<feGaussianBlur stdDeviation="2"/>
<feColorMatrix type="matrix" values="0 0 0 0 0 0 0 0 0 0 0 0 0 0 0 0 0 0 0.25 0"/>
<feBlend mode="normal" in2="BackgroundImageFix" result="effect1_dropShadow"/>
<feBlend mode="normal" in="SourceGraphic" in2="effect1_dropShadow" result="shape"/>
</filter>
</defs>
</svg>
