<svg width="127" height="202" viewBox="0 0 127 202" fill="none" xmlns="http://www.w3.org/2000/svg">
<g filter="url(#filter0_d)">
<rect x="4" y="19.8232" width="74.6322" height="178" transform="rotate(-15 4 19.8232)" fill="#218E0F"/>
<rect x="4.61237" y="20.1768" width="73.6322" height="177" transform="rotate(-15 4.61237 20.1768)" stroke="black" stroke-linejoin="round"/>
</g>
<path d="M66.2128 31.4796L68.6013 40.3937L67.9505 40.5681L67.8216 40.087C67.5688 39.1437 67.3231 38.5474 67.0844 38.2979C66.8551 38.0459 66.5156 37.9296 66.0658 37.9491C65.6161 37.9685 64.5941 38.1917 62.9999 38.6189L50.4637 41.978C48.8412 42.4127 47.5878 42.6778 46.7035 42.7732C45.8216 42.8781 44.9015 42.7455 43.943 42.3755C42.9751 42.008 42.1427 41.3919 41.4459 40.5272C40.7517 39.6718 40.2314 38.598 39.8851 37.3057C39.4959 35.8531 39.4652 34.6632 39.7931 33.7362C40.1116 32.8118 40.6387 32.251 41.3745 32.0538C41.8178 31.935 42.2283 31.9767 42.606 32.1788C42.9811 32.3714 43.2231 32.6706 43.3317 33.0762C43.4429 33.4913 43.3997 33.8769 43.202 34.2332C43.0017 34.5801 42.7035 34.8066 42.3073 34.9127C42.0715 34.9759 41.8111 34.985 41.526 34.9401C41.2719 34.897 41.0882 34.8906 40.975 34.9209C40.6731 35.0018 40.4853 35.2442 40.4116 35.6482C40.3378 36.0521 40.3717 36.5182 40.5133 37.0464C40.8014 38.1218 41.3883 38.9351 42.2741 39.4863C43.1504 40.0401 44.0757 40.2674 45.05 40.1681C46.0149 40.0713 47.5679 39.736 49.7092 39.1623L62.2455 35.8032C63.7736 35.3937 64.7467 35.0824 65.1648 34.8693C65.5854 34.6656 65.8414 34.3948 65.9328 34.0569C66.0268 33.7284 65.9436 33.0784 65.6833 32.1068L65.5619 31.654L66.2128 31.4796ZM54.7561 56.9787L54.8964 57.5023C53.2606 57.8496 52.2418 57.2733 51.8399 55.7735C51.668 55.1321 51.7013 54.5772 51.9398 54.1089C52.1808 53.65 52.621 53.2743 53.2604 52.9816C52.3379 52.2178 51.602 51.4899 51.0526 50.798C50.5058 50.1154 50.1502 49.4676 49.9859 48.8545C49.7762 48.0716 49.8218 47.3365 50.123 46.6492C50.4241 45.9619 50.9472 45.5184 51.6924 45.3187C52.664 45.0584 53.6394 45.3025 54.6184 46.0512C55.6001 46.8093 56.6588 47.9309 57.7948 49.416L59.2739 51.3703L59.8398 51.2187C60.6416 51.0038 61.2079 50.7965 61.5385 50.5967C61.8692 50.3969 62.1178 50.0421 62.2846 49.5324C62.4513 49.0226 62.4399 48.414 62.2503 47.7066C61.8712 46.2916 61.1885 45.6304 60.2022 45.7228C59.1996 45.8296 58.6124 45.5624 58.4405 44.9209C58.2863 44.3455 58.4828 43.9845 59.0299 43.8379C59.5676 43.6939 60.2453 43.9217 61.0632 44.5215C61.8905 45.1187 62.5203 46.2239 62.9525 47.8369C63.2735 49.0349 63.3338 50.0145 63.1334 50.7759C62.933 51.5373 62.6201 52.0863 62.1946 52.4227C61.7717 52.7685 61.065 53.0742 60.0745 53.3396L55.3911 54.5945C54.2969 54.8877 53.6093 55.1326 53.3283 55.3292C53.0474 55.5258 52.9575 55.8127 53.0586 56.1901C53.2254 56.8126 53.7912 57.0755 54.7561 56.9787ZM58.6089 51.5485L57.573 50.173C55.9305 48.0048 54.3593 47.1215 52.8595 47.5234C52.2652 47.6827 51.8258 47.9672 51.5414 48.3771C51.2663 48.7844 51.1958 49.238 51.3297 49.738C51.4485 50.1813 51.7325 50.6562 52.1816 51.1627C52.6307 51.6692 53.245 52.2073 54.0245 52.7769L58.6089 51.5485ZM65.9779 59.128L66.0803 59.5101C65.5536 59.8837 64.7894 60.2199 63.7876 60.5187C64.7714 60.983 65.5612 61.5347 66.1571 62.1737C66.7529 62.8128 67.1595 63.5379 67.3769 64.3491C67.6246 65.2735 67.6334 66.08 67.4034 66.7684C67.1759 67.4663 66.8019 67.976 66.2814 68.2975C65.7704 68.6164 64.9772 68.9199 63.9018 69.208L60.2796 70.1786C58.9401 70.5375 58.1305 70.7797 57.8507 70.9053C57.571 71.0308 57.3885 71.2364 57.3032 71.5221C57.23 71.8147 57.2831 72.2958 57.4626 72.9656L56.8117 73.14L55.2231 67.2114L55.874 67.037L55.946 67.3059C56.128 67.985 56.3459 68.4018 56.5996 68.5563C56.8533 68.7107 57.116 68.7667 57.3877 68.7242C57.6594 68.6818 58.4414 68.4874 59.7337 68.1411L63.4691 67.1402C64.3841 66.895 65.0223 66.6735 65.3838 66.4755C65.7572 66.2845 66.0418 65.9504 66.2375 65.4734C66.4357 65.0057 66.4539 64.4701 66.2922 63.8664C66.1076 63.1778 65.7232 62.5731 65.1388 62.0523C64.5664 61.5384 63.7953 61.1131 62.8255 60.7765L58.0996 62.0428C56.7601 62.4017 55.9505 62.6439 55.6707 62.7694C55.3935 62.9044 55.2123 63.1147 55.127 63.4004C55.0538 63.693 55.1082 64.1789 55.2901 64.858L54.6393 65.0324L53.0697 59.1746L53.7205 59.0002C53.8949 59.6511 54.0823 60.0862 54.2826 60.3055C54.4829 60.5248 54.7227 60.6273 55.002 60.6132C55.2932 60.6059 56.1463 60.4127 57.5613 60.0336L61.0137 59.1085C62.3626 58.7471 63.1709 58.5001 63.4388 58.3677C63.7185 58.2422 63.8951 58.0331 63.9683 57.7405C64.0535 57.4548 64.0051 56.9724 63.8232 56.2932L64.474 56.1188C64.8652 57.1261 65.3665 58.1292 65.9779 59.128ZM67.7487 83.2818L65.5839 75.2025C65.0172 75.3139 64.5971 75.4063 64.3236 75.4796C62.2861 76.0255 60.8379 76.7522 59.9791 77.6598C59.1322 78.5742 58.8781 79.6634 59.2168 80.9274C59.6768 82.6442 60.7716 83.655 62.5013 83.9599L62.6833 84.6391C61.6402 84.595 60.7251 84.1982 59.9379 83.4487C59.1601 82.6967 58.6296 81.7924 58.3466 80.7359C58.0837 79.7549 58.08 78.76 58.3354 77.7514C58.6029 76.7496 59.1148 75.8491 59.8712 75.0499C60.6276 74.2507 61.652 73.678 62.9443 73.3317C64.7743 72.8414 66.437 72.9721 67.9326 73.724C69.4376 74.4733 70.4062 75.6544 70.8384 77.2674C71.2453 78.7861 71.0978 80.0844 70.3958 81.1622C69.6938 82.2399 68.8114 82.9465 67.7487 83.2818ZM67.6512 80.654C67.8757 80.6242 68.0729 80.5865 68.2427 80.541C69.0728 80.3186 69.6485 79.9015 69.9699 79.2896C70.3032 78.6847 70.375 78.0285 70.1855 77.3211C69.7255 75.6043 68.3853 74.8664 66.165 75.1075L67.6512 80.654ZM72.7197 108.625L72.9017 109.305L66.8207 110.494L62.5631 94.6045L63.214 94.4301L63.3201 94.8263C63.5754 95.779 63.867 96.358 64.195 96.5633C64.5255 96.778 64.8943 96.8713 65.3012 96.8432C65.7176 96.8125 66.7276 96.5823 68.3312 96.1526L77.7405 93.6314C79.2026 93.2396 80.1534 92.9394 80.5928 92.7306C81.0348 92.5313 81.3063 92.2614 81.4071 91.921C81.52 91.5875 81.4525 90.9585 81.2048 90.0341L81.8557 89.8597L85.5295 103.57L80.8683 105.305L80.6901 104.64C81.9487 103.979 82.7969 103.352 83.2346 102.76C83.6843 102.174 83.899 101.561 83.8788 100.919C83.8679 100.275 83.6831 99.283 83.3242 97.9435L82.6114 95.2834L74.5604 97.4407L75.1064 99.4782C75.3566 100.412 75.6112 101.041 75.8701 101.366C76.1316 101.701 76.4378 101.881 76.7889 101.909C77.1519 101.943 77.805 101.834 78.7483 101.581L78.9265 102.246L72.3612 104.005L72.1831 103.34C73.249 103.054 73.9371 102.774 74.2476 102.499C74.5674 102.221 74.7325 101.894 74.7427 101.517C74.7649 101.147 74.6661 100.552 74.4462 99.7309L73.8813 97.6227L69.3394 98.8397C67.066 99.4488 65.7657 99.9539 65.4385 100.355C65.1207 100.754 65.1336 101.594 65.4774 102.877L65.8603 104.306C66.1307 105.316 66.4805 106.112 66.9096 106.694C67.3481 107.274 68.0466 107.749 69.0051 108.119C69.9756 108.496 71.2138 108.665 72.7197 108.625ZM71.3758 118.722L78.5341 119.685C79.581 119.819 80.1564 119.872 80.2601 119.844C80.7318 119.718 80.8367 119.129 80.5751 118.076L81.2259 117.902L82.3178 121.977L81.6669 122.151C81.4693 121.527 81.1757 121.11 80.786 120.901C80.4058 120.69 79.6341 120.507 78.4707 120.354L64.6214 118.53C63.3014 118.358 62.3786 118.14 61.8531 117.876C61.318 117.615 60.9899 117.258 60.8685 116.805C60.7043 116.192 60.9004 115.811 61.4569 115.662C62.0984 115.49 62.7722 115.835 63.4784 116.698C63.8873 117.205 64.2066 117.529 64.4364 117.669C64.6687 117.819 65.0459 117.925 65.5681 117.988L68.6229 118.352L76.7938 111.492C77.5108 110.885 77.9437 110.425 78.0924 110.113C78.2411 109.8 78.2333 109.337 78.069 108.724L78.7199 108.549L80.1454 113.869L79.4945 114.044C79.216 113.118 78.8975 112.702 78.5391 112.799C78.3976 112.836 77.9847 113.144 77.3003 113.722L71.3758 118.722ZM81.1242 127.483C82.0496 127.579 82.8914 127.91 83.6494 128.475C84.41 129.05 84.8826 129.681 85.0671 130.37C85.2339 130.992 85.172 131.535 84.8813 131.997C84.5906 132.459 84.2424 132.744 83.8368 132.853C83.5632 132.926 83.3021 132.895 83.0535 132.759C82.8074 132.633 82.649 132.438 82.5782 132.174C82.4518 131.702 82.7048 131.25 83.3371 130.818C83.7632 130.522 83.9308 130.204 83.8398 129.865C83.7311 129.459 83.3227 129.048 82.6145 128.631C81.9158 128.211 81.2478 128.001 80.6105 128C79.9733 127.999 79.1359 128.137 78.0982 128.415L76.0324 128.969C74.7967 129.3 74.0223 129.523 73.7092 129.637C73.3986 129.761 73.19 129.963 73.0834 130.244C72.9768 130.526 73.0043 130.968 73.1661 131.572L73.2723 131.968L72.6214 132.143L70.9722 125.988L71.623 125.813L71.7027 126.11C71.8543 126.676 72.0372 127.057 72.2513 127.252C72.4774 127.455 72.7382 127.541 73.0339 127.513C73.3295 127.484 74.147 127.29 75.4865 126.931L78.755 126.056C80.0001 125.722 80.7733 125.495 81.0745 125.374C81.3876 125.259 81.5975 125.062 81.7041 124.78C81.8201 124.496 81.7972 124.053 81.6355 123.449L81.5559 123.152L82.1926 122.981C82.5339 123.84 83.1231 124.926 83.96 126.238C83.2881 126.711 82.3428 127.126 81.1242 127.483ZM84.2636 144.916L82.0988 136.837C81.5321 136.948 81.112 137.041 80.8385 137.114C78.801 137.66 77.3528 138.387 76.4939 139.294C75.6471 140.209 75.393 141.298 75.7317 142.562C76.1917 144.279 77.2865 145.289 79.0162 145.594L79.1981 146.273C78.1551 146.229 77.24 145.833 76.4528 145.083C75.675 144.331 75.1445 143.427 74.8614 142.37C74.5986 141.389 74.5949 140.394 74.8503 139.386C75.1177 138.384 75.6297 137.483 76.3861 136.684C77.1425 135.885 78.1669 135.312 79.4592 134.966C81.2892 134.476 82.9519 134.607 84.4475 135.358C85.9524 136.108 86.921 137.289 87.3532 138.902C87.7602 140.42 87.6126 141.719 86.9106 142.797C86.2087 143.874 85.3263 144.581 84.2636 144.916ZM84.1661 142.288C84.3906 142.259 84.5878 142.221 84.7576 142.175C85.5877 141.953 86.1634 141.536 86.4847 140.924C86.818 140.319 86.8899 139.663 86.7003 138.955C86.2403 137.239 84.9002 136.501 82.6799 136.742L84.1661 142.288ZM26.32 50.2196L26.396 50.5035L23.2596 51.3439L23.1835 51.06C23.5189 50.8852 23.7953 50.6578 24.0128 50.3778C22.9124 49.8281 22.1983 48.9413 21.8704 47.7176C21.5236 46.4234 21.6493 45.255 22.2475 44.2125C22.8469 43.1743 23.8201 42.4748 25.1671 42.1138C26.0519 41.8767 26.9346 41.8431 27.8152 42.0129C28.7002 42.1815 29.4228 42.5541 29.983 43.1305C30.5433 43.707 30.9319 44.4002 31.1489 45.2102C31.3282 45.8793 31.3517 46.5217 31.2195 47.1375C31.0928 47.7565 30.8982 48.245 30.6356 48.6032C31.0605 48.6922 31.4785 48.7029 31.8897 48.6352L31.9676 48.9257L28.5948 49.9143L28.5188 49.6304C29.6718 49.1091 30.4019 48.4794 30.709 47.7414C31.0172 47.0077 31.0687 46.2579 30.8635 45.4919C30.6122 44.5543 30.0315 43.9102 29.1214 43.5596C28.2124 43.2134 27.0492 43.2302 25.6317 43.61C24.2891 43.9697 23.3398 44.5473 22.7839 45.3426C22.2324 46.1368 22.0769 46.9829 22.3175 47.8809C22.4461 48.3607 22.6943 48.8202 23.062 49.2596C23.4298 49.6989 23.93 49.9895 24.5625 50.1314C25.2005 50.2765 25.7864 50.3059 26.32 50.2196ZM28.3814 53.2907C28.8219 53.4557 29.1782 53.6764 29.4504 53.9526C29.7238 54.2332 29.9129 54.5694 30.0179 54.9611C30.137 55.4058 30.1431 55.7981 30.036 56.1382C29.9302 56.4826 29.7526 56.7355 29.5033 56.8966C29.2583 57.0566 28.8321 57.218 28.2246 57.3808L26.7324 57.7806C26.0985 57.9505 25.7163 58.0647 25.5857 58.1233C25.4563 58.1862 25.3745 58.286 25.3403 58.4225C25.3106 58.5579 25.3387 58.7863 25.4248 59.1076L25.1211 59.189L24.3727 56.3959L24.6764 56.3145L24.71 56.44C24.7961 56.7614 24.8978 56.9559 25.015 57.0235C25.1334 57.0956 25.256 57.1217 25.3828 57.1019C25.5152 57.0853 25.8807 56.9968 26.4794 56.8364L28.1037 56.4012C28.5527 56.2808 28.878 56.1654 29.0795 56.0548C29.2811 55.9441 29.4257 55.7709 29.5135 55.5351C29.6025 55.3036 29.6075 55.0405 29.5284 54.7455C29.4364 54.4022 29.2526 54.1212 28.977 53.9025C28.7058 53.6826 28.3422 53.5229 27.8861 53.4234L25.7203 54.0037C25.1129 54.1665 24.7411 54.2755 24.6049 54.3309C24.4699 54.3906 24.3804 54.4878 24.3362 54.6223C24.2964 54.7556 24.3173 54.9741 24.3986 55.2779L24.0949 55.3593L23.3589 52.6124L23.6626 52.531L23.6998 52.6697C23.7847 52.9866 23.8836 53.1795 23.9964 53.2484C24.1148 53.3205 24.2374 53.3466 24.3642 53.3268C24.4965 53.3102 24.8643 53.2211 25.4673 53.0595L30.8554 51.6158C31.4012 51.4695 31.7326 51.3241 31.8496 51.1795C31.9677 51.0393 31.9743 50.7734 31.8693 50.3816L32.1731 50.3002C32.3559 50.9825 32.6005 51.5256 32.9069 51.9295L32.944 52.0681L28.3814 53.2907ZM27.7853 65.1701L27.8507 65.4144C27.0874 65.5765 26.6119 65.3075 26.4244 64.6076C26.3442 64.3083 26.3597 64.0493 26.471 63.8308C26.5835 63.6167 26.7889 63.4413 27.0873 63.3047C26.6568 62.9483 26.3134 62.6086 26.057 62.2857C25.8018 61.9672 25.6359 61.6649 25.5592 61.3787C25.4613 61.0134 25.4826 60.6703 25.6231 60.3496C25.7637 60.0289 26.0078 59.8219 26.3556 59.7287C26.809 59.6072 27.2641 59.7212 27.721 60.0705C28.1791 60.4243 28.6732 60.9477 29.2033 61.6408L29.8936 62.5528L30.1577 62.482C30.5319 62.3818 30.7961 62.285 30.9504 62.1918C31.1047 62.0985 31.2208 61.933 31.2986 61.6951C31.3764 61.4572 31.371 61.1732 31.2826 60.843C31.1056 60.1827 30.787 59.8741 30.3268 59.9173C29.8589 59.9671 29.5849 59.8424 29.5047 59.5431C29.4327 59.2746 29.5244 59.1061 29.7797 59.0377C30.0306 58.9704 30.3469 59.0768 30.7286 59.3567C31.1147 59.6354 31.4086 60.1511 31.6102 60.9039C31.76 61.4629 31.7882 61.9201 31.6947 62.2754C31.6012 62.6307 31.4551 62.8869 31.2566 63.0439C31.0592 63.2053 30.7294 63.3479 30.2672 63.4718L28.0816 64.0574C27.571 64.1942 27.2501 64.3085 27.119 64.4003C26.9879 64.492 26.9459 64.6259 26.9931 64.802C27.0709 65.0925 27.335 65.2152 27.7853 65.1701ZM29.5832 62.6359L29.0998 61.9941C28.3333 60.9822 27.6001 60.57 26.9002 60.7576C26.6229 60.8319 26.4178 60.9647 26.2851 61.1559C26.1567 61.346 26.1238 61.5577 26.1863 61.791C26.2417 61.9979 26.3743 62.2196 26.5838 62.4559C26.7934 62.6923 27.0801 62.9434 27.4439 63.2092L29.5832 62.6359ZM31.7465 66.9324C32.1784 66.9771 32.5712 67.1313 32.925 67.3951C33.2799 67.6633 33.5004 67.9581 33.5865 68.2794C33.6644 68.5699 33.6355 68.823 33.4998 69.0387C33.3641 69.2543 33.2017 69.3875 33.0124 69.4382C32.8847 69.4724 32.7629 69.4579 32.6468 69.3946C32.532 69.3357 32.4581 69.2447 32.425 69.1214C32.3661 68.9013 32.4841 68.6904 32.7792 68.4887C32.9781 68.3505 33.0563 68.2021 33.0138 68.0436C32.9631 67.8544 32.7725 67.6624 32.442 67.4679C32.1159 67.2722 31.8042 67.1741 31.5068 67.1736C31.2094 67.173 30.8186 67.2377 30.3344 67.3674L29.3704 67.6257C28.7937 67.7802 28.4323 67.8841 28.2862 67.9375C28.1412 67.9952 28.0439 68.0897 27.9941 68.2209C27.9444 68.3522 27.9572 68.5587 28.0327 68.8405L28.0823 69.0253L27.7785 69.1067L27.0089 66.2344L27.3126 66.153L27.3498 66.2917C27.4206 66.5558 27.5059 66.7335 27.6058 66.8246C27.7113 66.919 27.8331 66.9596 27.971 66.9462C28.109 66.9328 28.4905 66.8424 29.1156 66.6749L30.6409 66.2662C31.2219 66.1105 31.5827 66.0044 31.7233 65.9478C31.8694 65.8945 31.9674 65.8022 32.0171 65.6709C32.0713 65.5385 32.0606 65.3314 31.9851 65.0497L31.9479 64.911L32.2451 64.8314C32.4044 65.2322 32.6793 65.7389 33.0699 66.3513C32.7563 66.5722 32.3152 66.7659 31.7465 66.9324ZM37.7812 70.1207L30.5575 72.0563C29.9809 72.2108 29.6195 72.3148 29.4733 72.3681C29.3284 72.4258 29.231 72.5203 29.1813 72.6516C29.1315 72.7828 29.1444 72.9893 29.2199 73.2711L29.2624 73.4295L28.9586 73.5109L28.1837 70.6188L28.4874 70.5374L28.537 70.7223C28.6077 70.9864 28.6931 71.1641 28.793 71.2553C28.8985 71.3497 29.0202 71.3902 29.1582 71.3768C29.2961 71.3634 29.6777 71.273 30.3028 71.1055L35.6512 69.6724C36.2191 69.5202 36.562 69.3741 36.6802 69.2339C36.8027 69.0925 36.8115 68.826 36.7065 68.4342L37.0103 68.3528C37.0822 68.6213 37.1974 68.9278 37.3557 69.2723C37.5152 69.6211 37.6441 69.8555 37.7423 69.9755L37.7812 70.1207ZM31.8653 73.5035C32.6929 73.2817 33.4583 73.3739 34.1616 73.7799C34.8693 74.1848 35.3316 74.7922 35.5486 75.6022C35.7669 76.4165 35.6707 77.1759 35.2603 77.8804C34.8499 78.5848 34.2331 79.0473 33.4099 79.2679C32.4987 79.5121 31.7057 79.4226 31.0308 78.9995C30.3604 78.5752 29.9185 77.9647 29.705 77.168C29.4915 76.3712 29.5734 75.6203 29.9506 74.9153C30.3335 74.2135 30.9717 73.7429 31.8653 73.5035ZM32.126 74.6084C31.1664 74.8656 30.5347 75.2023 30.2311 75.6186C29.9319 76.0338 29.8577 76.5231 30.0087 77.0866C30.1632 77.6632 30.4727 78.0521 30.937 78.2532C31.407 78.4576 32.1218 78.4312 33.0814 78.1741C34.0322 77.9193 34.6695 77.5858 34.9931 77.1735C35.3167 76.7613 35.4006 76.2646 35.2449 75.6835C35.0904 75.1069 34.7694 74.7187 34.2818 74.5191C33.7998 74.3227 33.0812 74.3525 32.126 74.6084ZM36.9272 82.8336L36.4902 81.2026L33.2217 82.0784C32.7199 82.2129 32.3868 82.3257 32.2225 82.4169C32.0627 82.5069 31.9488 82.6365 31.8809 82.8057C31.8141 82.9793 31.8026 83.1475 31.8462 83.3104C31.9312 83.6273 32.1854 83.8541 32.6088 83.9907L32.54 84.2356C32.2129 84.177 31.9385 84.0334 31.7169 83.805C31.5009 83.5798 31.3563 83.3308 31.2832 83.0578C31.1982 82.7409 31.2158 82.4366 31.3358 82.145C31.4614 81.8565 31.6414 81.6479 31.8758 81.519C32.1114 81.3946 32.5439 81.248 33.1734 81.0793L36.2372 80.2584L36.0266 79.4726L36.3304 79.3912C36.4359 79.7498 36.6745 80.0327 37.0461 80.2398C37.4177 80.4469 37.8804 80.5187 38.4343 80.4552L38.4909 80.6665L36.7939 81.1212L37.2309 82.7522L36.9272 82.8336ZM37.9852 86.7822L37.5482 85.1512L34.2797 86.027C33.7779 86.1615 33.4448 86.2743 33.2806 86.3655C33.1207 86.4555 33.0068 86.5851 32.9389 86.7543C32.8722 86.9279 32.8606 87.0961 32.9043 87.259C32.9892 87.5759 33.2434 87.8027 33.6669 87.9393L33.598 88.1842C33.2709 88.1256 32.9966 87.982 32.7749 87.7536C32.5589 87.5284 32.4143 87.2794 32.3412 87.0064C32.2563 86.6895 32.2738 86.3852 32.3938 86.0935C32.5194 85.8051 32.6994 85.5965 32.9338 85.4676C33.1694 85.3432 33.6019 85.1966 34.2314 85.0279L37.2952 84.207L37.0847 83.4212L37.3884 83.3398C37.4939 83.6984 37.7325 83.9813 38.1041 84.1884C38.4757 84.3955 38.9384 84.4673 39.4923 84.4038L39.5489 84.6151L37.852 85.0698L38.289 86.7008L37.9852 86.7822ZM37.9709 92.8298L36.9606 89.0595C36.6962 89.1115 36.5002 89.1546 36.3725 89.1888C35.4217 89.4436 34.7459 89.7827 34.3451 90.2062C33.9498 90.6329 33.8313 91.1412 33.9893 91.7311C34.204 92.5323 34.7149 93.004 35.5221 93.1463L35.607 93.4632C35.1203 93.4427 34.6932 93.2575 34.3258 92.9077C33.9629 92.5568 33.7153 92.1348 33.5832 91.6418C33.4606 91.1839 33.4588 90.7197 33.578 90.249C33.7028 89.7815 33.9417 89.3612 34.2947 88.9883C34.6477 88.6153 35.1258 88.3481 35.7288 88.1865C36.5828 87.9576 37.3588 88.0187 38.0567 88.3695C38.759 88.7192 39.211 89.2704 39.4127 90.0231C39.6026 90.7318 39.5338 91.3377 39.2062 91.8407C38.8786 92.3436 38.4668 92.6734 37.9709 92.8298ZM37.9254 91.6035C38.0302 91.5896 38.1222 91.572 38.2014 91.5508C38.5888 91.447 38.8575 91.2523 39.0074 90.9668C39.163 90.6845 39.1965 90.3783 39.108 90.0481C38.8934 89.247 38.268 88.9027 37.2318 89.0152L37.9254 91.6035ZM41.5176 101.101C41.7152 102.138 41.6644 102.961 41.3651 103.569C41.0658 104.178 40.5926 104.569 39.9456 104.742C39.3821 104.893 38.8509 104.856 38.3518 104.631C37.8572 104.405 37.4759 104.048 37.2079 103.558C36.9454 103.071 36.6968 102.39 36.4621 101.514L35.5209 98.0015L35.8246 97.9201L35.9166 98.2635C36.0192 98.6464 36.1384 98.8976 36.2742 99.0169C36.4111 99.1406 36.5861 99.1952 36.7993 99.1805C37.0168 99.1647 37.4997 99.0565 38.248 98.856L42.606 97.6883C43.3324 97.4937 43.7953 97.346 43.9948 97.2454C44.1954 97.1492 44.3171 97.0222 44.3598 96.8645C44.4036 96.7112 44.3648 96.4079 44.2433 95.9545L44.1973 95.7828L44.5011 95.7014L44.9352 97.1633L45.4375 98.8263C46.0933 101.274 45.7169 102.686 44.3082 103.064C43.7271 103.219 43.2039 103.133 42.7385 102.805C42.2743 102.481 41.8673 101.913 41.5176 101.101ZM41.2096 99.4496C41.2347 99.5608 41.2573 99.6538 41.2773 99.7287C41.5321 100.679 41.8557 101.289 42.2482 101.556C42.6408 101.824 43.1716 101.868 43.8407 101.689C44.3073 101.564 44.65 101.399 44.8687 101.194C45.0875 100.989 45.2285 100.732 45.2919 100.422C45.3596 100.112 45.305 99.6261 45.1281 98.9658C45.0821 98.7941 45.0283 98.6198 44.9667 98.4429L41.2096 99.4496ZM40.8861 99.5363L38.8919 100.071C38.0424 100.298 37.5072 100.458 37.2866 100.55C37.0659 100.642 36.9139 100.77 36.8304 100.934C36.7481 101.103 36.7601 101.385 36.8662 101.781C37.0549 102.485 37.377 102.965 37.8323 103.221C38.2876 103.476 38.8762 103.507 39.5982 103.314C40.3377 103.116 40.8277 102.77 41.0681 102.276C41.3141 101.785 41.3027 101.038 41.0337 100.035C40.9913 99.8761 40.942 99.71 40.8861 99.5363ZM42.5143 107.118C42.9461 107.163 43.339 107.317 43.6927 107.581C44.0477 107.849 44.2682 108.144 44.3543 108.465C44.4322 108.756 44.4032 109.009 44.2676 109.225C44.1319 109.44 43.9695 109.573 43.7802 109.624C43.6525 109.658 43.5307 109.644 43.4146 109.581C43.2998 109.522 43.2258 109.431 43.1928 109.307C43.1338 109.087 43.2519 108.876 43.547 108.675C43.7458 108.536 43.824 108.388 43.7816 108.23C43.7309 108.04 43.5403 107.848 43.2098 107.654C42.8837 107.458 42.5719 107.36 42.2746 107.359C41.9772 107.359 41.5864 107.424 41.1022 107.553L40.1381 107.812C39.5615 107.966 39.2001 108.07 39.0539 108.123C38.909 108.181 38.8116 108.276 38.7619 108.407C38.7121 108.538 38.725 108.745 38.8005 109.026L38.85 109.211L38.5463 109.293L37.7767 106.42L38.0804 106.339L38.1176 106.478C38.1883 106.742 38.2737 106.919 38.3736 107.011C38.4791 107.105 38.6008 107.145 38.7388 107.132C38.8768 107.119 39.2583 107.028 39.8834 106.861L41.4087 106.452C41.9897 106.296 42.3505 106.19 42.4911 106.134C42.6372 106.08 42.7351 105.988 42.7849 105.857C42.839 105.724 42.8284 105.517 42.7529 105.236L42.7157 105.097L43.0129 105.017C43.1722 105.418 43.4471 105.925 43.8377 106.537C43.5241 106.758 43.083 106.952 42.5143 107.118ZM41.7662 110.454C42.5937 110.232 43.3592 110.324 44.0624 110.73C44.7701 111.135 45.2325 111.743 45.4495 112.553C45.6677 113.367 45.5716 114.126 45.1611 114.831C44.7507 115.535 44.1339 115.998 43.3107 116.218C42.3995 116.463 41.6065 116.373 40.9317 115.95C40.2613 115.526 39.8193 114.915 39.6058 114.118C39.3923 113.322 39.4742 112.571 39.8515 111.866C40.2343 111.164 40.8725 110.693 41.7662 110.454ZM42.0268 111.559C41.0672 111.816 40.4356 112.153 40.1319 112.569C39.8327 112.984 39.7586 113.474 39.9096 114.037C40.0641 114.614 40.3735 115.003 40.8379 115.204C41.3078 115.408 42.0226 115.382 42.9822 115.124C43.9331 114.87 44.5703 114.536 44.8939 114.124C45.2175 113.712 45.3014 113.215 45.1457 112.634C44.9912 112.057 44.6702 111.669 44.1826 111.47C43.7007 111.273 42.9821 111.303 42.0268 111.559ZM46.8543 117.795L46.9021 117.974C46.6563 118.148 46.2996 118.305 45.8321 118.444C46.2912 118.661 46.6598 118.918 46.9379 119.217C47.216 119.515 47.4057 119.853 47.5071 120.232C47.6227 120.663 47.6269 121.04 47.5195 121.361C47.4133 121.687 47.2388 121.924 46.9959 122.074C46.7574 122.223 46.3873 122.365 45.8854 122.499L44.1951 122.952C43.57 123.12 43.1922 123.233 43.0616 123.291C42.931 123.35 42.8459 123.446 42.8061 123.579C42.7719 123.716 42.7967 123.94 42.8804 124.253L42.5767 124.334L41.8354 121.568L42.1391 121.486L42.1727 121.612C42.2577 121.929 42.3593 122.123 42.4777 122.195C42.5961 122.267 42.7187 122.293 42.8455 122.274C42.9723 122.254 43.3372 122.163 43.9403 122.001L45.6835 121.534C46.1105 121.42 46.4083 121.317 46.577 121.224C46.7513 121.135 46.8841 120.979 46.9754 120.757C47.0679 120.538 47.0764 120.288 47.0009 120.007C46.9148 119.685 46.7354 119.403 46.4627 119.16C46.1956 118.92 45.8357 118.722 45.3831 118.565L43.1777 119.156C42.5527 119.323 42.1748 119.436 42.0443 119.495C41.9149 119.558 41.8303 119.656 41.7905 119.789C41.7564 119.926 41.7817 120.152 41.8667 120.469L41.5629 120.551L40.8304 117.817L41.1342 117.736C41.2156 118.039 41.303 118.243 41.3965 118.345C41.4899 118.447 41.6018 118.495 41.7322 118.488C41.8681 118.485 42.2662 118.395 42.9265 118.218L44.5376 117.786C45.1671 117.618 45.5444 117.502 45.6693 117.441C45.7999 117.382 45.8823 117.284 45.9165 117.148C45.9562 117.015 45.9336 116.789 45.8487 116.472L46.1525 116.391C46.335 116.861 46.569 117.329 46.8543 117.795ZM48.753 126.968L48.316 125.337L45.0475 126.213C44.5457 126.347 44.2126 126.46 44.0483 126.551C43.8885 126.641 43.7746 126.771 43.7067 126.94C43.6399 127.114 43.6284 127.282 43.672 127.445C43.757 127.762 44.0112 127.989 44.4346 128.125L44.3658 128.37C44.0387 128.311 43.7643 128.168 43.5427 127.94C43.3267 127.714 43.1821 127.465 43.109 127.192C43.0241 126.875 43.0416 126.571 43.1616 126.279C43.2872 125.991 43.4672 125.782 43.7016 125.654C43.9372 125.529 44.3697 125.383 44.9992 125.214L48.063 124.393L47.8525 123.607L48.1562 123.526C48.2617 123.884 48.5003 124.167 48.8719 124.374C49.2435 124.581 49.7062 124.653 50.2601 124.59L50.3167 124.801L48.6197 125.256L49.0567 126.887L48.753 126.968ZM48.7387 133.016L47.7284 129.245C47.464 129.297 47.2679 129.34 47.1403 129.375C46.1894 129.629 45.5136 129.969 45.1128 130.392C44.7176 130.819 44.5991 131.327 44.7571 131.917C44.9718 132.718 45.4827 133.19 46.2899 133.332L46.3748 133.649C45.888 133.629 45.461 133.443 45.0936 133.094C44.7306 132.743 44.4831 132.321 44.351 131.828C44.2283 131.37 44.2266 130.906 44.3458 130.435C44.4706 129.967 44.7095 129.547 45.0625 129.174C45.4155 128.801 45.8935 128.534 46.4966 128.372C47.3506 128.144 48.1266 128.205 48.8245 128.555C49.5268 128.905 49.9788 129.456 50.1805 130.209C50.3704 130.918 50.3016 131.524 49.974 132.027C49.6464 132.53 49.2346 132.859 48.7387 133.016ZM48.6932 131.789C48.798 131.776 48.89 131.758 48.9692 131.737C49.3566 131.633 49.6252 131.438 49.7752 131.153C49.9308 130.87 49.9643 130.564 49.8758 130.234C49.6612 129.433 49.0358 129.089 47.9996 129.201L48.6932 131.789ZM51.8393 127.684C51.9802 127.646 52.1192 127.663 52.2564 127.735C52.3936 127.807 52.4834 127.922 52.5259 128.08C52.566 128.23 52.5474 128.372 52.47 128.506C52.3927 128.64 52.2792 128.727 52.1295 128.767C51.9798 128.807 51.838 128.788 51.7041 128.711C51.5701 128.634 51.4831 128.52 51.443 128.37C51.4029 128.221 51.4215 128.079 51.4988 127.945C51.5806 127.81 51.6941 127.723 51.8393 127.684ZM52.4887 130.107C52.6383 130.067 52.7801 130.086 52.9141 130.163C53.0481 130.24 53.1351 130.354 53.1752 130.504C53.2153 130.653 53.1967 130.795 53.1193 130.929C53.042 131.063 52.9285 131.15 52.7788 131.19C52.6336 131.229 52.4912 131.208 52.3516 131.128C52.2177 131.05 52.1312 130.939 52.0923 130.794C52.0522 130.644 52.0708 130.502 52.1482 130.368C52.2255 130.234 52.339 130.147 52.4887 130.107Z" fill="white"/>
<defs>
<filter id="filter0_d" x="0" y="0.50708" width="126.159" height="199.251" filterUnits="userSpaceOnUse" color-interpolation-filters="sRGB">
<feFlood flood-opacity="0" result="BackgroundImageFix"/>
<feColorMatrix in="SourceAlpha" type="matrix" values="0 0 0 0 0 0 0 0 0 0 0 0 0 0 0 0 0 0 127 0"/>
<feOffset dy="4"/>
<feGaussianBlur stdDeviation="2"/>
<feColorMatrix type="matrix" values="0 0 0 0 0 0 0 0 0 0 0 0 0 0 0 0 0 0 0.25 0"/>
<feBlend mode="normal" in2="BackgroundImageFix" result="effect1_dropShadow"/>
<feBlend mode="normal" in="SourceGraphic" in2="effect1_dropShadow" result="shape"/>
</filter>
</defs>
</svg>
