<svg width="188" height="93" viewBox="0 0 188 93" fill="none" xmlns="http://www.w3.org/2000/svg">
<g filter="url(#filter0_dd)">
<rect x="4" y="85" width="85" height="180" transform="rotate(-90 4 85)" fill="#790136"/>
<rect x="4.5" y="84.5" width="84" height="179" transform="rotate(-90 4.5 84.5)" stroke="black" stroke-linejoin="round"/>
</g>
<path d="M33.8438 36.3438L41.5625 18.8125H48.0625V19.5313H47.2812C46.2396 19.5313 45.5573 19.6198 45.2344 19.7969C44.9115 19.9635 44.6927 20.2813 44.5781 20.75C44.474 21.2188 44.4219 22.3333 44.4219 24.0938V34.4844C44.4219 36.151 44.4635 37.2448 44.5469 37.7656C44.6302 38.276 44.8385 38.6562 45.1719 38.9062C45.5156 39.1562 46.1667 39.2812 47.125 39.2812H48.0625V40H37.9375V39.2812H38.6875C39.5833 39.2812 40.2031 39.1667 40.5469 38.9375C40.901 38.7083 41.125 38.3542 41.2188 37.875C41.3229 37.3854 41.375 36.2552 41.375 34.4844V21L32.9844 40H32.25L23.7969 21L23.7969 33.4062C23.7969 35.1042 23.849 36.2604 23.9531 36.875C24.0573 37.4896 24.3802 38.0312 24.9219 38.5C25.4635 38.9583 26.224 39.2188 27.2031 39.2812V40H19.625V39.2812C20.5312 39.2292 21.2656 38.9844 21.8281 38.5469C22.401 38.099 22.75 37.5521 22.875 36.9062C23 36.2604 23.0625 35.0625 23.0625 33.3125L23.0625 24.0938C23.0625 22.4062 23.0104 21.3177 22.9062 20.8281C22.8125 20.3385 22.6042 20 22.2812 19.8125C21.9688 19.625 21.276 19.5312 20.2031 19.5312H19.625V18.8125H26.0781L33.8438 36.3438ZM49.875 33.5781C49.875 31.6198 50.5312 29.9844 51.8438 28.6719C53.1562 27.349 54.7708 26.6875 56.6875 26.6875C58.6146 26.6875 60.2344 27.349 61.5469 28.6719C62.8594 29.9948 63.5156 31.6302 63.5156 33.5781C63.5156 35.7344 62.849 37.4323 61.5156 38.6719C60.1823 39.901 58.5729 40.5156 56.6875 40.5156C54.8021 40.5156 53.1927 39.8906 51.8594 38.6406C50.5365 37.3802 49.875 35.6927 49.875 33.5781ZM52.4688 33.6562C52.4688 35.9271 52.8385 37.5208 53.5781 38.4375C54.3177 39.3438 55.3542 39.7969 56.6875 39.7969C58.0521 39.7969 59.0938 39.3438 59.8125 38.4375C60.5417 37.5208 60.9062 35.9271 60.9062 33.6562C60.9062 31.4063 60.5469 29.8021 59.8281 28.8438C59.1094 27.8854 58.0625 27.4063 56.6875 27.4063C55.3229 27.4063 54.276 27.8854 53.5469 28.8438C52.8281 29.7917 52.4688 31.3958 52.4688 33.6562ZM67.7656 40.5156H67.1562V23.3906C67.1562 22.1406 67.1198 21.3333 67.0469 20.9688C66.9844 20.6042 66.8125 20.3333 66.5312 20.1563C66.2604 19.9792 65.7812 19.8906 65.0938 19.8906V19.1719C65.7083 19.1719 66.4479 19.099 67.3125 18.9531C68.1771 18.8073 68.7656 18.6615 69.0781 18.5156H69.4062V28.6406C70.1354 27.9844 70.875 27.4948 71.625 27.1719C72.375 26.849 73.1354 26.6875 73.9062 26.6875C75.75 26.6875 77.2604 27.3281 78.4375 28.6094C79.6146 29.8906 80.2031 31.526 80.2031 33.5156C80.2031 35.5156 79.599 37.1823 78.3906 38.5156C77.1823 39.849 75.6146 40.5156 73.6875 40.5156C72.7396 40.5156 71.9062 40.3177 71.1875 39.9219C70.4792 39.526 69.8854 38.9375 69.4062 38.1563C68.7292 38.8333 68.1823 39.6198 67.7656 40.5156ZM69.4062 29.5625V34.5781C69.4062 35.8698 69.4896 36.8021 69.6562 37.375C69.8333 37.9375 70.25 38.4792 70.9062 39C71.5625 39.5208 72.3281 39.7813 73.2031 39.7813C74.5469 39.7813 75.6146 39.2292 76.4062 38.125C77.2083 37.0208 77.6094 35.4323 77.6094 33.3594C77.6094 31.4531 77.2344 30.0052 76.4844 29.0156C75.7448 28.0156 74.7552 27.5156 73.5156 27.5156C72.8073 27.5156 72.1094 27.6875 71.4219 28.0313C70.7448 28.3646 70.0729 28.875 69.4062 29.5625ZM88.7656 37.5781L91.7344 30.4688C92.1615 29.4271 92.375 28.849 92.375 28.7344C92.375 28.2135 91.7969 27.9427 90.6406 27.9219V27.2031H95.1406V27.9219C94.4427 27.9531 93.9323 28.1406 93.6094 28.4844C93.2865 28.8177 92.8854 29.5625 92.4062 30.7188L86.7031 44.4844C86.1615 45.7969 85.6823 46.6875 85.2656 47.1563C84.849 47.6354 84.3906 47.875 83.8906 47.875C83.2135 47.875 82.875 47.5677 82.875 46.9531C82.875 46.2448 83.4167 45.6458 84.5 45.1563C85.1354 44.875 85.5573 44.6354 85.7656 44.4375C85.9844 44.2396 86.1979 43.8802 86.4062 43.3594L87.625 40.3125L82.8125 30C82.3854 29.0938 82.0312 28.5208 81.75 28.2813C81.4688 28.0417 80.9896 27.9219 80.3125 27.9219V27.2031H86.1875V27.9219C85.1562 27.9531 84.6406 28.1667 84.6406 28.5625C84.6406 28.7188 84.8438 29.2292 85.25 30.0938L88.7656 37.5781ZM103.906 18.9844L107.391 18.8125C110.297 18.6667 112.255 18.5938 113.266 18.5938C116.411 18.5938 118.865 19.0729 120.625 20.0313C122.385 20.9896 123.693 22.2917 124.547 23.9375C125.411 25.5729 125.844 27.4635 125.844 29.6094C125.844 31.1615 125.609 32.5833 125.141 33.875C124.672 35.1563 124.026 36.224 123.203 37.0781C122.391 37.9219 121.443 38.5677 120.359 39.0156C119.286 39.4531 118.266 39.7292 117.297 39.8438C116.328 39.9479 114.964 40 113.203 40H103.812V39.2813H104.688C105.594 39.2813 106.219 39.1667 106.562 38.9375C106.917 38.7083 107.141 38.3542 107.234 37.875C107.339 37.3854 107.391 36.2552 107.391 34.4844V24.2656C107.391 22.5781 107.339 21.4896 107.234 21C107.141 20.5 106.932 20.1615 106.609 19.9844C106.297 19.7969 105.604 19.7031 104.531 19.7031L103.906 19.7031V18.9844ZM110.438 19.4219V33.5781C110.438 35.6719 110.474 37.0208 110.547 37.625C110.63 38.2292 110.865 38.6563 111.25 38.9063C111.646 39.1458 112.474 39.2656 113.734 39.2656C115.578 39.2656 117.094 39.0156 118.281 38.5156C119.469 38.0052 120.458 37.0104 121.25 35.5313C122.052 34.0417 122.453 32.1458 122.453 29.8438C122.453 28.0521 122.219 26.4531 121.75 25.0469C121.292 23.6406 120.63 22.5 119.766 21.625C118.901 20.7396 117.943 20.1406 116.891 19.8281C115.839 19.5052 114.49 19.3438 112.844 19.3438C112.052 19.3438 111.25 19.3698 110.438 19.4219ZM129.641 20.1563C129.641 19.7083 129.797 19.3229 130.109 19C130.432 18.6771 130.818 18.5156 131.266 18.5156C131.714 18.5156 132.094 18.6771 132.406 19C132.719 19.3229 132.875 19.7083 132.875 20.1563C132.875 20.6146 132.719 21.0052 132.406 21.3281C132.094 21.651 131.714 21.8125 131.266 21.8125C130.818 21.8125 130.432 21.651 130.109 21.3281C129.797 21.0052 129.641 20.6146 129.641 20.1563ZM132.656 26.6875V35.6094C132.656 36.974 132.677 37.8333 132.719 38.1875C132.76 38.5417 132.911 38.8125 133.172 39C133.432 39.1875 133.896 39.2813 134.562 39.2813H134.891V40H128V39.2813H128.531C129.271 39.2813 129.75 39.1771 129.969 38.9688C130.198 38.75 130.328 38.4948 130.359 38.2031C130.401 37.901 130.422 37.0365 130.422 35.6094V31.7344C130.422 30.2344 130.349 29.3177 130.203 28.9844C130.068 28.651 129.88 28.4427 129.641 28.3594C129.411 28.276 129.005 28.2344 128.422 28.2344H128V27.5156C129.854 27.3281 131.292 27.0521 132.312 26.6875H132.656ZM147.734 36.875H148.422C147.714 39.3021 145.943 40.5156 143.109 40.5156C141.286 40.5156 139.75 39.8958 138.5 38.6563C137.26 37.4167 136.641 35.776 136.641 33.7344C136.641 31.6406 137.312 29.9427 138.656 28.6406C140 27.3385 141.589 26.6875 143.422 26.6875C144.526 26.6875 145.542 26.9323 146.469 27.4219C147.396 27.901 147.859 28.4896 147.859 29.1875C147.859 29.4479 147.771 29.6927 147.594 29.9219C147.427 30.151 147.182 30.2656 146.859 30.2656C146.172 30.2656 145.75 29.8646 145.594 29.0625C145.469 28.4583 145.276 28.0365 145.016 27.7969C144.745 27.5573 144.219 27.4375 143.438 27.4375C142.042 27.4375 140.99 27.9219 140.281 28.8906C139.583 29.8594 139.234 31.3177 139.234 33.2656C139.234 35.276 139.609 36.849 140.359 37.9844C141.12 39.1198 142.266 39.6875 143.797 39.6875C145.859 39.6875 147.172 38.75 147.734 36.875ZM157.641 27.2031L162.797 27.2031V27.9219C161.849 27.9427 160.578 28.651 158.984 30.0469C158.474 30.4844 157.682 31.125 156.609 31.9688L161.172 37.3125C161.859 38.1146 162.401 38.6406 162.797 38.8906C163.193 39.1302 163.599 39.2604 164.016 39.2813V40H157.641V39.2813C158.703 39.2604 159.234 39.0313 159.234 38.5938C159.234 38.3958 158.885 37.8906 158.188 37.0781L154.906 33.2656L154.234 33.7656V35.6094C154.234 36.974 154.25 37.8333 154.281 38.1875C154.323 38.5313 154.474 38.8021 154.734 39C154.995 39.1875 155.448 39.2813 156.094 39.2813V40H149.609V39.2813H150.094C150.844 39.2813 151.328 39.1771 151.547 38.9688C151.776 38.75 151.906 38.4948 151.938 38.2031C151.969 37.901 151.984 37.0365 151.984 35.6094V22.7813C151.984 21.5417 151.865 20.75 151.625 20.4063C151.396 20.0625 150.833 19.8906 149.938 19.8906V19.1719C150.552 19.1719 151.286 19.099 152.141 18.9531C153.005 18.8073 153.594 18.6615 153.906 18.5156H154.234V32.9063L155.578 31.9688C157.755 30.4271 158.844 29.3177 158.844 28.6406C158.844 28.1823 158.443 27.9427 157.641 27.9219V27.2031ZM27.606 52.0195H22.4204V54.4146C22.4204 55.1958 22.4399 55.7085 22.479 55.9526C22.5181 56.1919 22.6157 56.3701 22.772 56.4873C22.9331 56.6045 23.2358 56.6631 23.6802 56.6631H23.9365V57H19.4687V56.6631H19.7251C20.1499 56.6631 20.4429 56.6094 20.604 56.502C20.77 56.3945 20.875 56.2285 20.9189 56.0039C20.9678 55.7744 20.9922 55.2446 20.9922 54.4146V49.5439C20.9922 48.7529 20.9678 48.2427 20.9189 48.0132C20.875 47.7837 20.7773 47.625 20.626 47.5371C20.4795 47.4492 20.1548 47.4053 19.6519 47.4053H19.4687V47.0684H23.9365V47.4053H23.7534C23.27 47.4053 22.9526 47.4468 22.8013 47.5298C22.6499 47.6079 22.5474 47.7568 22.4937 47.9766C22.4448 48.1963 22.4204 48.7188 22.4204 49.5439V51.5142H27.606L27.606 49.5439C27.606 48.7529 27.584 48.2427 27.54 48.0132C27.4961 47.7837 27.3984 47.625 27.2471 47.5371C27.1006 47.4492 26.7759 47.4053 26.2729 47.4053H26.0093V47.0684H30.5283V47.4053H30.3818C29.8936 47.4053 29.5737 47.4468 29.4224 47.5298C29.271 47.6079 29.1685 47.7568 29.1147 47.9766C29.0659 48.1963 29.0415 48.7188 29.0415 49.5439L29.0415 54.4146C29.0415 55.1958 29.0586 55.7085 29.0928 55.9526C29.1318 56.1919 29.2319 56.3701 29.3931 56.4873C29.5542 56.6045 29.8569 56.6631 30.3013 56.6631H30.5283V57H26.0093V56.6631H26.3535C26.7734 56.6631 27.064 56.6094 27.2251 56.502C27.3911 56.3945 27.4961 56.2285 27.54 56.0039C27.584 55.7744 27.606 55.2446 27.606 54.4146V52.0195ZM37.0322 53.0303H32.8501C32.8306 53.3184 32.8208 53.5332 32.8208 53.6748C32.8208 54.7295 32.9844 55.5229 33.3115 56.0552C33.6436 56.5825 34.1367 56.8462 34.791 56.8462C35.6797 56.8462 36.3096 56.4482 36.6807 55.6523H37.0322C36.876 56.1504 36.5659 56.541 36.1021 56.8242C35.6382 57.1025 35.1328 57.2417 34.5859 57.2417C34.0781 57.2417 33.5972 57.1147 33.1431 56.8608C32.6938 56.6021 32.3252 56.2383 32.0371 55.7695C31.749 55.3008 31.605 54.7319 31.605 54.063C31.605 53.1157 31.8833 52.3296 32.4399 51.7046C32.9966 51.0747 33.6924 50.7598 34.5273 50.7598C35.3135 50.7598 35.9214 50.999 36.3511 51.4775C36.7808 51.9561 37.0078 52.4736 37.0322 53.0303ZM35.7505 52.7373C35.7651 52.625 35.7725 52.5249 35.7725 52.437C35.7725 52.0073 35.6455 51.6753 35.3916 51.4409C35.1426 51.2017 34.835 51.082 34.4687 51.082C33.5801 51.082 33.0503 51.6338 32.8794 52.7373H35.7505ZM40.1011 52.2905C40.2671 51.856 40.5356 51.4922 40.9067 51.1992C41.2827 50.9062 41.6489 50.7598 42.0054 50.7598C42.3276 50.7598 42.5815 50.8599 42.7671 51.0601C42.9526 51.2603 43.0454 51.4653 43.0454 51.6753C43.0454 51.8169 42.9966 51.939 42.8989 52.0415C42.8062 52.144 42.6914 52.1953 42.5547 52.1953C42.3105 52.1953 42.125 52.0146 41.998 51.6533C41.9102 51.4092 41.7783 51.2871 41.6025 51.2871C41.3926 51.2871 41.1411 51.4312 40.8481 51.7192C40.5552 52.0024 40.3672 52.2979 40.2842 52.6055C40.2012 52.9131 40.1597 53.3354 40.1597 53.8726V54.9419C40.1597 55.5815 40.167 55.9844 40.1816 56.1504C40.2012 56.3164 40.272 56.4434 40.394 56.5312C40.5161 56.6191 40.7334 56.6631 41.0459 56.6631H41.251V57H38.0649V56.6631H38.2188C38.5117 56.6631 38.7192 56.624 38.8413 56.5459C38.9683 56.4629 39.0439 56.3481 39.0684 56.2017C39.0928 56.0552 39.105 55.6353 39.105 54.9419V53.25C39.105 52.6055 39.0952 52.2026 39.0757 52.0415C39.061 51.8755 38.9927 51.7485 38.8706 51.6606C38.7485 51.5679 38.5312 51.5215 38.2188 51.5215H38.0649V51.1919C38.5239 51.1382 39.1245 50.9941 39.8667 50.7598C40.0083 51.1455 40.0864 51.6558 40.1011 52.2905ZM45.7261 50.7598H45.7993C45.9409 51.0869 46.0117 51.5068 46.0117 52.0195C46.3389 51.5996 46.6904 51.2847 47.0664 51.0747C47.4473 50.8647 47.855 50.7598 48.2896 50.7598C48.7827 50.7598 49.1831 50.8721 49.4907 51.0967C49.7983 51.3213 50.0132 51.6582 50.1353 52.1074C50.5063 51.6582 50.8872 51.3213 51.2778 51.0967C51.6685 50.8721 52.0664 50.7598 52.4717 50.7598C52.9355 50.7598 53.3286 50.8672 53.6509 51.082C53.9731 51.2969 54.1685 51.541 54.2368 51.8145C54.3052 52.0879 54.3394 52.5298 54.3394 53.1401V54.9419C54.3394 55.6401 54.3516 56.0649 54.376 56.2163C54.4053 56.3677 54.4834 56.48 54.6104 56.5532C54.7422 56.6265 54.9839 56.6631 55.3354 56.6631V57H52.3398V56.6631C52.6572 56.6631 52.8794 56.6289 53.0063 56.5605C53.1382 56.4873 53.2187 56.3799 53.248 56.2383C53.2773 56.0918 53.292 55.6597 53.292 54.9419V52.9424C53.292 52.5371 53.2676 52.2319 53.2187 52.0269C53.1748 51.8218 53.0552 51.646 52.8599 51.4995C52.6646 51.353 52.4106 51.2798 52.0981 51.2798C51.7808 51.2798 51.4609 51.3872 51.1387 51.6021C50.8213 51.8169 50.5015 52.1416 50.1792 52.5762V54.9419C50.1792 55.5815 50.1865 55.9844 50.2012 56.1504C50.2207 56.3115 50.2891 56.4385 50.4062 56.5313C50.5283 56.6191 50.7432 56.6631 51.0508 56.6631V57L48.1504 57V56.6631C48.4775 56.6631 48.7046 56.6289 48.8315 56.5605C48.9634 56.4922 49.0439 56.3872 49.0732 56.2456C49.1074 56.104 49.1245 55.6694 49.1245 54.9419V53.2793C49.1245 52.752 49.1025 52.3711 49.0586 52.1367C49.0195 51.8975 48.895 51.6948 48.6851 51.5288C48.4751 51.3579 48.2139 51.2725 47.9014 51.2725C47.5986 51.2725 47.2886 51.3701 46.9712 51.5654C46.6587 51.7607 46.3389 52.0537 46.0117 52.4443V54.9419C46.0117 55.6011 46.0215 56.0112 46.041 56.1724C46.0605 56.3335 46.1338 56.4556 46.2607 56.5386C46.3877 56.6216 46.6147 56.6631 46.9419 56.6631V57H44.0049V56.6631C44.3271 56.6631 44.5518 56.6289 44.6787 56.5605C44.8105 56.4873 44.8911 56.3799 44.9204 56.2383C44.9497 56.0967 44.9644 55.6646 44.9644 54.9419V53.1475C44.9644 52.4639 44.9521 52.0464 44.9277 51.895C44.9082 51.7388 44.8325 51.6216 44.7007 51.5435C44.5737 51.4653 44.3418 51.4263 44.0049 51.4263V51.0894C44.6982 51.021 45.272 50.9111 45.7261 50.7598ZM62.2715 55.9014H62.5425C62.4985 56.7363 62.0884 57.1538 61.312 57.1538C60.98 57.1538 60.7163 57.0659 60.521 56.8901C60.3306 56.7144 60.2061 56.4531 60.1475 56.1064C59.6592 56.4531 59.2124 56.7144 58.8071 56.8901C58.4067 57.0659 58.0479 57.1538 57.7305 57.1538C57.3252 57.1538 56.9761 57.0366 56.6831 56.8022C56.3901 56.5679 56.2437 56.2578 56.2437 55.8721C56.2437 55.3691 56.4878 54.9297 56.9761 54.5537C57.4692 54.1777 58.1479 53.8115 59.0122 53.4551L60.1475 52.9937V52.7007C60.1475 52.2856 60.1206 51.9854 60.0669 51.7998C60.0132 51.6143 59.874 51.4482 59.6494 51.3018C59.4248 51.1553 59.1294 51.082 58.7632 51.082C58.0308 51.082 57.623 51.3262 57.54 51.8145C57.4619 52.3125 57.2568 52.5615 56.9248 52.5615C56.627 52.5615 56.478 52.4199 56.478 52.1367C56.478 51.8584 56.6758 51.5605 57.0713 51.2432C57.4668 50.9209 58.082 50.7598 58.917 50.7598C59.5371 50.7598 60.0181 50.8574 60.3599 51.0527C60.7017 51.248 60.9263 51.4702 61.0337 51.7192C61.146 51.9683 61.2021 52.3491 61.2021 52.8618V55.2861C61.2021 55.8525 61.2314 56.2163 61.29 56.3774C61.3486 56.5386 61.4756 56.6191 61.6709 56.6191C61.9932 56.6191 62.1934 56.3799 62.2715 55.9014ZM60.1475 53.3379L59.3491 53.6602C58.0894 54.1729 57.4595 54.8174 57.4595 55.5938C57.4595 55.9014 57.54 56.1504 57.7012 56.3408C57.8623 56.5264 58.0723 56.6191 58.3311 56.6191C58.5605 56.6191 58.8267 56.5435 59.1294 56.3921C59.4321 56.2407 59.7715 56.0137 60.1475 55.7109V53.3379ZM64.7617 50.7598H64.9595C65.0718 51.0625 65.1353 51.4751 65.1499 51.9976C65.5015 51.5825 65.8701 51.2725 66.2559 51.0674C66.6416 50.8623 67.0444 50.7598 67.4644 50.7598C67.9429 50.7598 68.3335 50.8599 68.6362 51.0601C68.9438 51.2603 69.1416 51.5068 69.2295 51.7998C69.3174 52.0879 69.3613 52.5103 69.3613 53.0669V54.9419C69.3613 55.6353 69.3735 56.0576 69.3979 56.209C69.4224 56.3604 69.498 56.4751 69.625 56.5532C69.7568 56.6265 69.9961 56.6631 70.3428 56.6631V57H67.2739V56.6631H67.4131C67.7646 56.6631 67.9941 56.6118 68.1016 56.5093C68.209 56.4067 68.27 56.2871 68.2847 56.1504C68.2993 56.0137 68.3066 55.6108 68.3066 54.9419V53.0083C68.3066 52.5347 68.2822 52.1978 68.2334 51.9976C68.1895 51.7925 68.0649 51.6118 67.8599 51.4556C67.6597 51.2993 67.4033 51.2212 67.0908 51.2212C66.7344 51.2212 66.3926 51.3286 66.0654 51.5435C65.7432 51.7534 65.438 52.0708 65.1499 52.4956V54.9419C65.1499 55.6353 65.1621 56.0576 65.1865 56.209C65.2158 56.3604 65.2939 56.4751 65.4209 56.5532C65.5527 56.6265 65.7944 56.6631 66.146 56.6631V57H63.1138V56.6631C63.4507 56.6631 63.6851 56.6289 63.8169 56.5605C63.9487 56.4922 64.0293 56.3896 64.0586 56.2529C64.0928 56.1113 64.1099 55.6743 64.1099 54.9419V53.1548C64.1099 52.4565 64.0952 52.0342 64.0659 51.8877C64.0415 51.7363 63.9634 51.624 63.8315 51.5508C63.7046 51.4727 63.4653 51.4336 63.1138 51.4336V51.0967C63.6509 51.0381 64.2002 50.9258 64.7617 50.7598ZM81.373 55.2861L84.9912 47.0684H88.0381V47.4053H87.6719C87.1836 47.4053 86.8638 47.4468 86.7124 47.5298C86.561 47.6079 86.4585 47.7568 86.4048 47.9766C86.356 48.1963 86.3315 48.7188 86.3315 49.5439V54.4146C86.3315 55.1958 86.3511 55.7085 86.3901 55.9526C86.4292 56.1919 86.5269 56.3701 86.6831 56.4873C86.8442 56.6045 87.1494 56.6631 87.5986 56.6631H88.0381V57H83.292V56.6631H83.6436C84.0635 56.6631 84.354 56.6094 84.5151 56.502C84.6812 56.3945 84.7861 56.2285 84.8301 56.0039C84.8789 55.7744 84.9033 55.2446 84.9033 54.4146V48.0938L80.9702 57H80.626L76.6636 48.0938V53.9092C76.6636 54.7051 76.688 55.2471 76.7368 55.5352C76.7856 55.8232 76.937 56.0771 77.1909 56.2969C77.4448 56.5117 77.8013 56.6338 78.2603 56.6631V57H74.708V56.6631C75.1328 56.6387 75.4771 56.5239 75.7407 56.3188C76.0093 56.1089 76.1729 55.8525 76.2314 55.5498C76.29 55.2471 76.3193 54.6855 76.3193 53.8652V49.5439C76.3193 48.7529 76.2949 48.2427 76.2461 48.0132C76.2021 47.7837 76.1045 47.625 75.9531 47.5371C75.8066 47.4492 75.4819 47.4053 74.979 47.4053H74.708V47.0684H77.7329L81.373 55.2861ZM94.3223 53.0303H90.1401C90.1206 53.3184 90.1108 53.5332 90.1108 53.6748C90.1108 54.7295 90.2744 55.5229 90.6016 56.0552C90.9336 56.5825 91.4268 56.8462 92.0811 56.8462C92.9697 56.8462 93.5996 56.4482 93.9707 55.6523H94.3223C94.166 56.1504 93.856 56.541 93.3921 56.8242C92.9282 57.1025 92.4229 57.2417 91.876 57.2417C91.3682 57.2417 90.8872 57.1147 90.4331 56.8608C89.9839 56.6021 89.6152 56.2383 89.3271 55.7695C89.0391 55.3008 88.895 54.7319 88.895 54.063C88.895 53.1157 89.1733 52.3296 89.73 51.7046C90.2866 51.0747 90.9824 50.7598 91.8174 50.7598C92.6035 50.7598 93.2114 50.999 93.6411 51.4775C94.0708 51.9561 94.2979 52.4736 94.3223 53.0303ZM93.0405 52.7373C93.0552 52.625 93.0625 52.5249 93.0625 52.437C93.0625 52.0073 92.9355 51.6753 92.6816 51.4409C92.4326 51.2017 92.125 51.082 91.7588 51.082C90.8701 51.082 90.3403 51.6338 90.1694 52.7373H93.0405ZM97.1934 46.9292V54.9419C97.1934 55.5815 97.2007 55.9844 97.2153 56.1504C97.2349 56.3164 97.3057 56.4434 97.4277 56.5313C97.5498 56.6191 97.7671 56.6631 98.0796 56.6631H98.2554V57H95.0474V56.6631H95.2524C95.5454 56.6631 95.7529 56.624 95.875 56.5459C96.002 56.4629 96.0776 56.3481 96.1021 56.2017C96.1265 56.0552 96.1387 55.6353 96.1387 54.9419V49.0093C96.1387 48.3794 96.0825 47.9839 95.9702 47.8228C95.8579 47.6567 95.5845 47.5737 95.1499 47.5737V47.2368C95.4478 47.2368 95.7969 47.2026 96.1973 47.1343C96.6025 47.0659 96.8809 46.9976 97.0322 46.9292H97.1934ZM102.137 57.2417H101.712L99.5811 52.4297C99.3711 51.9658 99.2051 51.6704 99.083 51.5435C98.9609 51.4165 98.7607 51.3481 98.4824 51.3384V51.0015H101.192V51.3384C100.895 51.3384 100.689 51.3628 100.577 51.4116C100.47 51.4604 100.416 51.5532 100.416 51.6899C100.416 51.7974 100.514 52.0586 100.709 52.4736L102.328 56.1138L103.785 52.8691C104.015 52.3516 104.129 52.0146 104.129 51.8584C104.129 51.5313 103.885 51.3579 103.397 51.3384V51.0015H105.418V51.3384C105.169 51.353 104.959 51.458 104.789 51.6533C104.623 51.8438 104.388 52.2759 104.085 52.9497L102.137 57.2417ZM106.385 47.6982C106.385 47.4883 106.458 47.3076 106.605 47.1563C106.756 47.0049 106.937 46.9292 107.147 46.9292C107.357 46.9292 107.535 47.0049 107.682 47.1563C107.828 47.3076 107.901 47.4883 107.901 47.6982C107.901 47.9131 107.828 48.0962 107.682 48.2476C107.535 48.3989 107.357 48.4746 107.147 48.4746C106.937 48.4746 106.756 48.3989 106.605 48.2476C106.458 48.0962 106.385 47.9131 106.385 47.6982ZM107.799 50.7598V54.9419C107.799 55.5815 107.809 55.9844 107.828 56.1504C107.848 56.3164 107.918 56.4434 108.041 56.5313C108.163 56.6191 108.38 56.6631 108.692 56.6631H108.846V57H105.616V56.6631H105.865C106.212 56.6631 106.437 56.6143 106.539 56.5166C106.646 56.4141 106.708 56.2944 106.722 56.1577C106.742 56.0161 106.751 55.6108 106.751 54.9419V53.1255C106.751 52.4224 106.717 51.9927 106.649 51.8364C106.585 51.6802 106.498 51.5825 106.385 51.5435C106.278 51.5044 106.087 51.4849 105.814 51.4849H105.616V51.1479C106.485 51.0601 107.159 50.9307 107.638 50.7598H107.799ZM111.432 46.9292V54.9419C111.432 55.5815 111.439 55.9844 111.454 56.1504C111.473 56.3164 111.544 56.4434 111.666 56.5313C111.788 56.6191 112.005 56.6631 112.318 56.6631H112.494V57L109.286 57V56.6631H109.491C109.784 56.6631 109.991 56.624 110.113 56.5459C110.24 56.4629 110.316 56.3481 110.34 56.2017C110.365 56.0552 110.377 55.6353 110.377 54.9419V49.0093C110.377 48.3794 110.321 47.9839 110.208 47.8228C110.096 47.6567 109.823 47.5737 109.388 47.5737V47.2368C109.686 47.2368 110.035 47.2026 110.436 47.1343C110.841 47.0659 111.119 46.9976 111.271 46.9292H111.432ZM115.035 46.9292V54.9419C115.035 55.5815 115.042 55.9844 115.057 56.1504C115.077 56.3164 115.147 56.4434 115.27 56.5313C115.392 56.6191 115.609 56.6631 115.921 56.6631H116.097V57H112.889V56.6631H113.094C113.387 56.6631 113.595 56.624 113.717 56.5459C113.844 56.4629 113.919 56.3481 113.944 56.2017C113.968 56.0552 113.98 55.6353 113.98 54.9419V49.0093C113.98 48.3794 113.924 47.9839 113.812 47.8228C113.7 47.6567 113.426 47.5737 112.992 47.5737V47.2368C113.29 47.2368 113.639 47.2026 114.039 47.1343C114.444 47.0659 114.723 46.9976 114.874 46.9292H115.035ZM122.33 53.0303H118.148C118.128 53.3184 118.119 53.5332 118.119 53.6748C118.119 54.7295 118.282 55.5229 118.609 56.0552C118.941 56.5825 119.435 56.8462 120.089 56.8462C120.978 56.8462 121.607 56.4482 121.979 55.6523H122.33C122.174 56.1504 121.864 56.541 121.4 56.8242C120.936 57.1025 120.431 57.2417 119.884 57.2417C119.376 57.2417 118.895 57.1147 118.441 56.8608C117.992 56.6021 117.623 56.2383 117.335 55.7695C117.047 55.3008 116.903 54.7319 116.903 54.063C116.903 53.1157 117.181 52.3296 117.738 51.7046C118.294 51.0747 118.99 50.7598 119.825 50.7598C120.611 50.7598 121.219 50.999 121.649 51.4775C122.079 51.9561 122.306 52.4736 122.33 53.0303ZM121.048 52.7373C121.063 52.625 121.07 52.5249 121.07 52.437C121.07 52.0073 120.943 51.6753 120.689 51.4409C120.44 51.2017 120.133 51.082 119.767 51.082C118.878 51.082 118.348 51.6338 118.177 52.7373H121.048Z" fill="white"/>
<defs>
<filter id="filter0_dd" x="0" y="0" width="188" height="93" filterUnits="userSpaceOnUse" color-interpolation-filters="sRGB">
<feFlood flood-opacity="0" result="BackgroundImageFix"/>
<feColorMatrix in="SourceAlpha" type="matrix" values="0 0 0 0 0 0 0 0 0 0 0 0 0 0 0 0 0 0 127 0"/>
<feOffset dy="4"/>
<feGaussianBlur stdDeviation="2"/>
<feColorMatrix type="matrix" values="0 0 0 0 0 0 0 0 0 0 0 0 0 0 0 0 0 0 0.25 0"/>
<feBlend mode="normal" in2="BackgroundImageFix" result="effect1_dropShadow"/>
<feColorMatrix in="SourceAlpha" type="matrix" values="0 0 0 0 0 0 0 0 0 0 0 0 0 0 0 0 0 0 127 0"/>
<feOffset dy="4"/>
<feGaussianBlur stdDeviation="2"/>
<feColorMatrix type="matrix" values="0 0 0 0 0 0 0 0 0 0 0 0 0 0 0 0 0 0 0.25 0"/>
<feBlend mode="normal" in2="effect1_dropShadow" result="effect2_dropShadow"/>
<feBlend mode="normal" in="SourceGraphic" in2="effect2_dropShadow" result="shape"/>
</filter>
</defs>
</svg>
