<svg width="93" height="234" viewBox="0 0 93 234" fill="none" xmlns="http://www.w3.org/2000/svg">
<g filter="url(#filter0_d)">
<rect x="4" width="85" height="178" fill="#1A20A9"/>
<rect x="4.5" y="0.5" width="84" height="177" stroke="black" stroke-linejoin="round"/>
</g>
<path d="M58.0879 13.4355V12.7617L62.8633 12.8643V32.1416L58.0879 32.2441V31.6143C59.3965 31.3896 60.3389 31.082 60.915 30.6914C61.501 30.3008 61.8574 29.8809 61.9844 29.4316C62.1211 28.9824 62.1895 28.2158 62.1895 27.1318V23.9385H48.1709C46.6182 23.9385 45.5977 23.9727 45.1094 24.041C44.6211 24.1191 44.2598 24.3193 44.0254 24.6416C43.791 24.9639 43.6738 25.5693 43.6738 26.458V27.4248H43V17.5225H43.6738V18.5479C43.6738 19.3975 43.7812 19.9834 43.9961 20.3057C44.2109 20.6377 44.543 20.8477 44.9922 20.9355C45.4512 21.0332 46.5107 21.082 48.1709 21.082H62.1895V18.1377C62.1895 16.8584 62.126 15.999 61.999 15.5596C61.8818 15.1201 61.5156 14.7051 60.9004 14.3145C60.2852 13.9336 59.3477 13.6406 58.0879 13.4355ZM53.0195 38.1328C53.8398 38.7188 54.4551 39.373 54.8652 40.0957C55.2754 40.8281 55.4805 41.6289 55.4805 42.498C55.4805 43.4844 55.2754 44.2998 54.8652 44.9443C54.4551 45.5986 53.9473 46.0234 53.3418 46.2188C52.7461 46.4141 51.7744 46.5117 50.4268 46.5117H47.1162C45.71 46.5117 44.8555 46.5361 44.5527 46.585C44.25 46.6436 44.0254 46.8047 43.8789 47.0684C43.7422 47.332 43.6738 47.8203 43.6738 48.5332H43V42.3369H43.6738V42.6152C43.6738 43.3281 43.7764 43.7871 43.9814 43.9922C44.1865 44.207 44.4258 44.3291 44.6992 44.3584C44.9824 44.3975 45.7881 44.417 47.1162 44.417H50.7197C51.7158 44.417 52.4531 44.3584 52.9316 44.2412C53.4102 44.124 53.8057 43.8457 54.1182 43.4062C54.4307 42.9766 54.5869 42.4346 54.5869 41.7803C54.5869 41.0186 54.3623 40.335 53.9131 39.7295C53.4736 39.124 52.8096 38.5918 51.9209 38.1328H47.1162C45.7686 38.1328 44.9385 38.1523 44.626 38.1914C44.3135 38.2402 44.0742 38.3916 43.9082 38.6455C43.752 38.8994 43.6738 39.3633 43.6738 40.0371H43V33.9434H43.6738V34.251C43.6738 34.9541 43.7715 35.4082 43.9668 35.6133C44.1719 35.8281 44.4111 35.9502 44.6846 35.9795C44.9678 36.0186 45.7783 36.0381 47.1162 36.0381H59.0693C60.2803 36.0381 61.0469 35.9209 61.3691 35.6865C61.6914 35.4619 61.8525 34.915 61.8525 34.0459H62.5264C62.5264 35.5596 62.7314 36.8193 63.1416 37.8252V38.1328H53.0195ZM50.9395 61.1602V52.7959C50.3633 52.7568 49.9336 52.7373 49.6504 52.7373C47.541 52.7373 45.9541 53.0645 44.8896 53.7188C43.835 54.3828 43.3076 55.3691 43.3076 56.6777C43.3076 58.4551 44.1035 59.7148 45.6953 60.457V61.1602C44.6992 60.8477 43.918 60.2275 43.3516 59.2998C42.7949 58.3721 42.5166 57.3613 42.5166 56.2676C42.5166 55.252 42.7705 54.29 43.2783 53.3818C43.7959 52.4834 44.5234 51.7461 45.4609 51.1699C46.3984 50.5938 47.5361 50.3057 48.874 50.3057C50.7686 50.3057 52.3408 50.8623 53.5908 51.9756C54.8506 53.0889 55.4805 54.4805 55.4805 56.1504C55.4805 57.7227 55.002 58.9385 54.0449 59.7979C53.0879 60.6572 52.0527 61.1113 50.9395 61.1602ZM51.5254 58.5967C51.75 58.626 51.9502 58.6406 52.126 58.6406C52.9854 58.6406 53.6494 58.3867 54.1182 57.8789C54.5967 57.3809 54.8359 56.7656 54.8359 56.0332C54.8359 54.2559 53.7324 53.1963 51.5254 52.8545V58.5967ZM53.0635 71.3408C56.1299 71.3408 58.5908 72.3662 60.4463 74.417C62.3018 76.4678 63.2295 79.0264 63.2295 82.0928C63.2295 85.1885 62.3115 87.7715 60.4756 89.8418C58.6396 91.9219 56.1348 92.9619 52.9609 92.9619C49.8848 92.9619 47.3945 91.9658 45.4902 89.9736C43.5859 87.9912 42.6338 85.3789 42.6338 82.1367C42.6338 78.9824 43.5859 76.3945 45.4902 74.373C47.3945 72.3516 49.9189 71.3408 53.0635 71.3408ZM52.9609 74.6953C49.7676 74.6953 47.3701 75.3301 45.7686 76.5996C44.167 77.8789 43.3662 79.793 43.3662 82.3418C43.3662 84.5781 44.167 86.3457 45.7686 87.6445C47.3701 88.9434 49.7578 89.5928 52.9316 89.5928C56.0176 89.5928 58.3809 88.9531 60.0215 87.6738C61.6719 86.3945 62.4971 84.5391 62.4971 82.1074C62.4971 79.7148 61.6914 77.8789 60.0801 76.5996C58.4785 75.3301 56.1055 74.6953 52.9609 74.6953ZM53.7227 105.765H58.4102C59.6895 105.765 60.4951 105.745 60.8271 105.706C61.1592 105.677 61.4131 105.54 61.5889 105.296C61.7646 105.052 61.8525 104.617 61.8525 103.992V103.685H62.5264C62.5557 104.866 62.7607 106.16 63.1416 107.566V107.874H47.0137C45.6172 107.874 44.7676 107.898 44.4648 107.947C44.1621 107.996 43.9375 108.147 43.791 108.401C43.6445 108.665 43.5713 109.148 43.5713 109.852H42.8975C42.8682 108.436 42.7412 107.176 42.5166 106.072C42.9756 105.955 43.6982 105.896 44.6846 105.896C43.9619 105.174 43.4199 104.427 43.0586 103.655C42.6973 102.894 42.5166 102.103 42.5166 101.282C42.5166 99.7295 43.1416 98.3867 44.3916 97.2539C45.6416 96.1309 47.1553 95.5693 48.9326 95.5693C50.8857 95.5693 52.4629 96.1455 53.6641 97.2979C54.875 98.4502 55.4805 99.8223 55.4805 101.414C55.4805 102.225 55.334 102.991 55.041 103.714C54.748 104.437 54.3086 105.12 53.7227 105.765ZM52.873 105.765C53.4297 105.12 53.8447 104.471 54.1182 103.816C54.4014 103.172 54.543 102.522 54.543 101.868C54.543 100.765 54.1182 99.8418 53.2686 99.0996C52.4189 98.3672 51.0322 98.001 49.1084 98.001C47.1553 98.001 45.7148 98.377 44.7871 99.1289C43.8594 99.8906 43.3955 100.828 43.3955 101.941C43.3955 102.684 43.5713 103.372 43.9229 104.007C44.2744 104.642 44.8018 105.228 45.5049 105.765H52.873ZM45.2705 117.63L51.9355 120.413C52.9121 120.813 53.4541 121.014 53.5615 121.014C54.0498 121.014 54.3037 120.472 54.3232 119.388H54.9971V123.606H54.3232C54.2939 122.952 54.1182 122.474 53.7959 122.171C53.4834 121.868 52.7852 121.492 51.7012 121.043L38.7959 115.696C37.5654 115.188 36.7305 114.739 36.291 114.349C35.8418 113.958 35.6172 113.528 35.6172 113.06C35.6172 112.425 35.9053 112.107 36.4814 112.107C37.1455 112.107 37.707 112.615 38.166 113.631C38.4297 114.227 38.6543 114.622 38.8398 114.817C39.0254 115.022 39.3623 115.223 39.8506 115.418L42.707 116.561L52.375 112.049C53.2246 111.648 53.7617 111.316 53.9863 111.053C54.2109 110.789 54.3232 110.34 54.3232 109.705H54.9971V115.213H54.3232C54.2939 114.246 54.0938 113.763 53.7227 113.763C53.5762 113.763 53.0977 113.953 52.2871 114.334L45.2705 117.63ZM42.6191 124.837H46.5596V125.408C44.2842 126.072 43.1465 127.259 43.1465 128.968C43.1465 129.71 43.3711 130.262 43.8203 130.623C44.2695 130.994 44.7627 131.18 45.2998 131.18C45.9248 131.18 46.4375 130.984 46.8379 130.594C47.2383 130.193 47.7217 129.417 48.2881 128.265C48.8838 127.054 49.4697 126.185 50.0459 125.657C50.6123 125.13 51.3105 124.866 52.1406 124.866C52.9316 124.866 53.6836 125.149 54.3965 125.716C55.1191 126.282 55.4805 127.078 55.4805 128.104C55.4805 129.148 55.0557 130.013 54.2061 130.696C54.3525 130.843 54.709 131.033 55.2754 131.268V131.81H51.5693V131.268C52.458 131.072 53.2197 130.691 53.8545 130.125C54.499 129.568 54.8213 128.909 54.8213 128.147C54.8213 127.562 54.6406 127.088 54.2793 126.727C53.918 126.365 53.498 126.185 53.0195 126.185C52.4922 126.185 52.0381 126.385 51.6572 126.785C51.2666 127.176 50.8223 127.923 50.3242 129.026C49.5723 130.687 48.8398 131.702 48.127 132.073C47.4043 132.444 46.7109 132.63 46.0469 132.63C45.002 132.63 44.1523 132.283 43.498 131.59C42.8438 130.906 42.5166 130.042 42.5166 128.997C42.5166 127.894 42.9707 126.912 43.8789 126.053C43.5859 125.789 43.166 125.574 42.6191 125.408V124.837ZM42.6191 134.856H46.5596V135.428C44.2842 136.092 43.1465 137.278 43.1465 138.987C43.1465 139.729 43.3711 140.281 43.8203 140.643C44.2695 141.014 44.7627 141.199 45.2998 141.199C45.9248 141.199 46.4375 141.004 46.8379 140.613C47.2383 140.213 47.7217 139.437 48.2881 138.284C48.8838 137.073 49.4697 136.204 50.0459 135.677C50.6123 135.149 51.3105 134.886 52.1406 134.886C52.9316 134.886 53.6836 135.169 54.3965 135.735C55.1191 136.302 55.4805 137.098 55.4805 138.123C55.4805 139.168 55.0557 140.032 54.2061 140.716C54.3525 140.862 54.709 141.053 55.2754 141.287V141.829H51.5693V141.287C52.458 141.092 53.2197 140.711 53.8545 140.145C54.499 139.588 54.8213 138.929 54.8213 138.167C54.8213 137.581 54.6406 137.107 54.2793 136.746C53.918 136.385 53.498 136.204 53.0195 136.204C52.4922 136.204 52.0381 136.404 51.6572 136.805C51.2666 137.195 50.8223 137.942 50.3242 139.046C49.5723 140.706 48.8398 141.722 48.127 142.093C47.4043 142.464 46.7109 142.649 46.0469 142.649C45.002 142.649 44.1523 142.303 43.498 141.609C42.8438 140.926 42.5166 140.062 42.5166 139.017C42.5166 137.913 42.9707 136.932 43.8789 136.072C43.5859 135.809 43.166 135.594 42.6191 135.428V134.856ZM50.9395 155.643V147.278C50.3633 147.239 49.9336 147.22 49.6504 147.22C47.541 147.22 45.9541 147.547 44.8896 148.201C43.835 148.865 43.3076 149.852 43.3076 151.16C43.3076 152.938 44.1035 154.197 45.6953 154.939V155.643C44.6992 155.33 43.918 154.71 43.3516 153.782C42.7949 152.854 42.5166 151.844 42.5166 150.75C42.5166 149.734 42.7705 148.772 43.2783 147.864C43.7959 146.966 44.5234 146.229 45.4609 145.652C46.3984 145.076 47.5361 144.788 48.874 144.788C50.7686 144.788 52.3408 145.345 53.5908 146.458C54.8506 147.571 55.4805 148.963 55.4805 150.633C55.4805 152.205 55.002 153.421 54.0449 154.28C53.0879 155.14 52.0527 155.594 50.9395 155.643ZM51.5254 153.079C51.75 153.108 51.9502 153.123 52.126 153.123C52.9854 153.123 53.6494 152.869 54.1182 152.361C54.5967 151.863 54.8359 151.248 54.8359 150.516C54.8359 148.738 53.7324 147.679 51.5254 147.337V153.079ZM45.2705 163.978L51.9355 166.761C52.9121 167.161 53.4541 167.361 53.5615 167.361C54.0498 167.361 54.3037 166.819 54.3232 165.735H54.9971V169.954H54.3232C54.2939 169.3 54.1182 168.821 53.7959 168.519C53.4834 168.216 52.7852 167.84 51.7012 167.391L38.7959 162.044C37.5654 161.536 36.7305 161.087 36.291 160.696C35.8418 160.306 35.6172 159.876 35.6172 159.407C35.6172 158.772 35.9053 158.455 36.4814 158.455C37.1455 158.455 37.707 158.963 38.166 159.979C38.4297 160.574 38.6543 160.97 38.8398 161.165C39.0254 161.37 39.3623 161.57 39.8506 161.766L42.707 162.908L52.375 158.396C53.2246 157.996 53.7617 157.664 53.9863 157.4C54.2109 157.137 54.3232 156.688 54.3232 156.053H54.9971V161.561H54.3232C54.2939 160.594 54.0938 160.11 53.7227 160.11C53.5762 160.11 53.0977 160.301 52.2871 160.682L45.2705 163.978ZM30.9805 20.606V15.4204H28.5854C27.8042 15.4204 27.2915 15.4399 27.0474 15.479C26.8081 15.5181 26.6299 15.6157 26.5127 15.772C26.3955 15.9331 26.3369 16.2358 26.3369 16.6802V16.9365H26V12.4688H26.3369V12.7251C26.3369 13.1499 26.3906 13.4429 26.498 13.604C26.6055 13.77 26.7715 13.875 26.9961 13.9189C27.2256 13.9678 27.7554 13.9922 28.5854 13.9922L33.4561 13.9922C34.2471 13.9922 34.7573 13.9678 34.9868 13.9189C35.2163 13.875 35.375 13.7773 35.4629 13.626C35.5508 13.4795 35.5947 13.1548 35.5947 12.6519V12.4688H35.9316V16.9365H35.5947V16.7534C35.5947 16.27 35.5532 15.9526 35.4702 15.8013C35.3921 15.6499 35.2432 15.5474 35.0234 15.4937C34.8037 15.4448 34.2812 15.4204 33.4561 15.4204H31.4858V20.606L33.4561 20.606C34.2471 20.606 34.7573 20.584 34.9868 20.54C35.2163 20.4961 35.375 20.3984 35.4629 20.2471C35.5508 20.1006 35.5947 19.7759 35.5947 19.2729V19.0093H35.9316V23.5283H35.5947V23.3818C35.5947 22.8936 35.5532 22.5737 35.4702 22.4224C35.3921 22.271 35.2432 22.1685 35.0234 22.1147C34.8037 22.0659 34.2812 22.0415 33.4561 22.0415L28.5854 22.0415C27.8042 22.0415 27.2915 22.0586 27.0474 22.0928C26.8081 22.1318 26.6299 22.2319 26.5127 22.3931C26.3955 22.5542 26.3369 22.8569 26.3369 23.3013V23.5283H26V19.0093H26.3369V19.3535C26.3369 19.7734 26.3906 20.064 26.498 20.2251C26.6055 20.3911 26.7715 20.4961 26.9961 20.54C27.2256 20.584 27.7554 20.606 28.5854 20.606H30.9805ZM29.0103 24.5977C29.9282 24.5977 30.6948 24.9053 31.3101 25.5205C31.9302 26.1357 32.2402 26.8926 32.2402 27.791C32.2402 28.6943 31.9302 29.4536 31.3101 30.0688C30.6899 30.6841 29.9233 30.9917 29.0103 30.9917C27.9995 30.9917 27.2036 30.6792 26.6226 30.0542C26.0464 29.4292 25.7583 28.6748 25.7583 27.791C25.7583 26.9072 26.0513 26.1528 26.6372 25.5278C27.228 24.9077 28.019 24.5977 29.0103 24.5977ZM28.9736 25.8135C27.9092 25.8135 27.1621 25.9868 26.7324 26.3335C26.3076 26.6802 26.0952 27.166 26.0952 27.791C26.0952 28.4307 26.3076 28.9189 26.7324 29.2559C27.1621 29.5977 27.9092 29.7686 28.9736 29.7686C30.0283 29.7686 30.7803 29.6001 31.2295 29.2632C31.6787 28.9263 31.9033 28.4355 31.9033 27.791C31.9033 27.1514 31.6787 26.6606 31.2295 26.3188C30.7852 25.9819 30.0332 25.8135 28.9736 25.8135ZM32.2402 33.6431V33.7163C31.9131 33.8579 31.4932 33.9287 30.9805 33.9287C31.4004 34.2559 31.7153 34.6074 31.9253 34.9834C32.1353 35.3643 32.2402 35.772 32.2402 36.2065C32.2402 36.6997 32.1279 37.1001 31.9033 37.4077C31.6787 37.7153 31.3418 37.9302 30.8926 38.0522C31.3418 38.4233 31.6787 38.8042 31.9033 39.1948C32.1279 39.5854 32.2402 39.9834 32.2402 40.3887C32.2402 40.8525 32.1328 41.2456 31.918 41.5679C31.7031 41.8901 31.459 42.0854 31.1855 42.1538C30.9121 42.2222 30.4702 42.2563 29.8599 42.2563H28.0581C27.3599 42.2563 26.9351 42.2686 26.7837 42.293C26.6323 42.3223 26.52 42.4004 26.4468 42.5273C26.3735 42.6592 26.3369 42.9009 26.3369 43.2524H26V40.2568H26.3369C26.3369 40.5742 26.3711 40.7964 26.4395 40.9233C26.5127 41.0552 26.6201 41.1357 26.7617 41.165C26.9082 41.1943 27.3403 41.209 28.0581 41.209H30.0576C30.4629 41.209 30.7681 41.1846 30.9731 41.1357C31.1782 41.0918 31.354 40.9722 31.5005 40.7769C31.647 40.5815 31.7202 40.3276 31.7202 40.0151C31.7202 39.6978 31.6128 39.3779 31.3979 39.0557C31.1831 38.7383 30.8584 38.4185 30.4238 38.0962H28.0581C27.4185 38.0962 27.0156 38.1035 26.8496 38.1182C26.6885 38.1377 26.5615 38.2061 26.4688 38.3232C26.3809 38.4453 26.3369 38.6602 26.3369 38.9678H26V36.0674H26.3369C26.3369 36.3945 26.3711 36.6216 26.4395 36.7485C26.5078 36.8804 26.6128 36.9609 26.7544 36.9902C26.896 37.0244 27.3306 37.0415 28.0581 37.0415H29.7207C30.248 37.0415 30.6289 37.0195 30.8633 36.9756C31.1025 36.9365 31.3052 36.812 31.4712 36.6021C31.6421 36.3921 31.7275 36.1309 31.7275 35.8184C31.7275 35.5156 31.6299 35.2056 31.4346 34.8882C31.2393 34.5757 30.9463 34.2559 30.5557 33.9287H28.0581C27.3989 33.9287 26.9888 33.9385 26.8276 33.958C26.6665 33.9775 26.5444 34.0508 26.4614 34.1777C26.3784 34.3047 26.3369 34.5317 26.3369 34.8589H26V31.9219H26.3369C26.3369 32.2441 26.3711 32.4688 26.4395 32.5957C26.5127 32.7275 26.6201 32.8081 26.7617 32.8374C26.9033 32.8667 27.3354 32.8813 28.0581 32.8813H29.8525C30.5361 32.8813 30.9536 32.8691 31.105 32.8447C31.2612 32.8252 31.3784 32.7495 31.4565 32.6177C31.5347 32.4907 31.5737 32.2588 31.5737 31.9219H31.9106C31.979 32.6152 32.0889 33.189 32.2402 33.6431ZM29.9697 49.5732V45.3911C29.6816 45.3716 29.4668 45.3618 29.3252 45.3618C28.2705 45.3618 27.4771 45.5254 26.9448 45.8525C26.4175 46.1846 26.1538 46.6777 26.1538 47.332C26.1538 48.2207 26.5518 48.8506 27.3477 49.2217V49.5732C26.8496 49.417 26.459 49.1069 26.1758 48.6431C25.8975 48.1792 25.7583 47.6738 25.7583 47.127C25.7583 46.6191 25.8853 46.1382 26.1392 45.6841C26.3979 45.2349 26.7617 44.8662 27.2305 44.5781C27.6992 44.29 28.2681 44.146 28.937 44.146C29.8843 44.146 30.6704 44.4243 31.2954 44.981C31.9253 45.5376 32.2402 46.2334 32.2402 47.0684C32.2402 47.8545 32.001 48.4624 31.5225 48.8921C31.0439 49.3218 30.5264 49.5488 29.9697 49.5732ZM30.2627 48.2915C30.375 48.3062 30.4751 48.3135 30.563 48.3135C30.9927 48.3135 31.3247 48.1865 31.5591 47.9326C31.7983 47.6836 31.918 47.376 31.918 47.0098C31.918 46.1211 31.3662 45.5913 30.2627 45.4204V48.2915ZM30.7095 52.6421C31.144 52.8081 31.5078 53.0767 31.8008 53.4478C32.0938 53.8237 32.2402 54.1899 32.2402 54.5464C32.2402 54.8687 32.1401 55.1226 31.9399 55.3081C31.7397 55.4937 31.5347 55.5864 31.3247 55.5864C31.1831 55.5864 31.061 55.5376 30.9585 55.4399C30.856 55.3472 30.8047 55.2324 30.8047 55.0957C30.8047 54.8516 30.9854 54.666 31.3467 54.5391C31.5908 54.4512 31.7129 54.3193 31.7129 54.1436C31.7129 53.9336 31.5688 53.6821 31.2808 53.3892C30.9976 53.0962 30.7021 52.9082 30.3945 52.8252C30.0869 52.7422 29.6646 52.7007 29.1274 52.7007H28.0581C27.4185 52.7007 27.0156 52.708 26.8496 52.7227C26.6836 52.7422 26.5566 52.813 26.4688 52.9351C26.3809 53.0571 26.3369 53.2744 26.3369 53.5869V53.792H26V50.606H26.3369V50.7598C26.3369 51.0527 26.376 51.2603 26.4541 51.3823C26.5371 51.5093 26.6519 51.585 26.7983 51.6094C26.9448 51.6338 27.3647 51.646 28.0581 51.646H29.75C30.3945 51.646 30.7974 51.6362 30.9585 51.6167C31.1245 51.6021 31.2515 51.5337 31.3394 51.4116C31.4321 51.2896 31.4785 51.0723 31.4785 50.7598V50.606H31.8081C31.8618 51.0649 32.0059 51.6655 32.2402 52.4077C31.8545 52.5493 31.3442 52.6274 30.7095 52.6421Z" fill="white"/>
<defs>
<filter id="filter0_d" x="0" y="0" width="93" height="186" filterUnits="userSpaceOnUse" color-interpolation-filters="sRGB">
<feFlood flood-opacity="0" result="BackgroundImageFix"/>
<feColorMatrix in="SourceAlpha" type="matrix" values="0 0 0 0 0 0 0 0 0 0 0 0 0 0 0 0 0 0 127 0"/>
<feOffset dy="4"/>
<feGaussianBlur stdDeviation="2"/>
<feColorMatrix type="matrix" values="0 0 0 0 0 0 0 0 0 0 0 0 0 0 0 0 0 0 0.25 0"/>
<feBlend mode="normal" in2="BackgroundImageFix" result="effect1_dropShadow"/>
<feBlend mode="normal" in="SourceGraphic" in2="effect1_dropShadow" result="shape"/>
</filter>
</defs>
</svg>
